<svg xmlns="http://www.w3.org/2000/svg" xmlns:xlink="http://www.w3.org/1999/xlink" id="Layer_1" viewBox="0 0 1080 1080"><defs><clipPath id="clippath"><path d="m365.35,302.25c-.04-.34-.2-.62-.49-.85l-5.17-4.22c.94-2.04,1.41-4.09,1.41-6.16l7.04,5.75c.28.23.58.32.91.28.32-.04.59-.21.81-.51l2.37-3.24c.22-.3.3-.61.26-.95-.04-.34-.2-.62-.49-.85l-25.14-20.53c-.28-.23-.58-.32-.91-.28-.32.04-.59.21-.81.51l-3.09,4.23c-.2.28-.28.59-.24.95.04.36.2.64.46.86l4.38,3.58c4.25,3.47,6.07,6.87,5.47,10.2l-12.48-10.19c-.28-.23-.58-.32-.9-.28-.32.04-.59.21-.81.51l-2.37,3.24c-.22.3-.3.61-.26.95.04.34.2.62.48.85l12.9,10.54c-1.71,1.38-3.71,1.86-6,1.44-2.29-.41-4.76-1.7-7.42-3.88l-3.38-2.76c-.26-.21-.56-.3-.9-.25-.34.04-.61.2-.81.48l-2.95,4.04c-.2.28-.28.58-.24.92.82,19.49.75,17.65,1.18,27.79,0,0,9.12-.27,9.12-.39-.84-19.9-.13-3.09-.85-20.05,3.61,2.56,6.62,2.98,10.15,2.81,3.53-.16,6.64-1.58,9.33-4.25l5.08,4.15c.28.23.58.32.9.28.32-.04.59-.21.81-.51l2.37-3.24c.22-.3.3-.61.26-.95Z" style="fill:#fff;"></path></clipPath></defs><g><path d="m404.48,906.29h-24.69v-132.95h24.69v132.95Zm70.65-56.98h-72.55v-21.08h72.55v21.08Zm-1.9-75.97h24.5v132.95h-24.5v-132.95Z" style="fill:#fff;"></path><path d="m539.32,906.29v-132.95h54.7c11.78,0,21.87,1.87,30.29,5.6,8.42,3.74,14.91,9.15,19.47,16.24,4.56,7.09,6.84,15.57,6.84,25.45s-2.28,18.11-6.84,25.07c-4.56,6.96-11.05,12.34-19.47,16.14-8.42,3.8-18.52,5.7-30.29,5.7h-40.83l10.83-11.02v49.76h-24.69Zm24.69-47.1l-10.83-11.96h39.69c10.89,0,19.09-2.34,24.6-7.03,5.51-4.68,8.26-11.21,8.26-19.56s-2.75-14.84-8.26-19.47c-5.51-4.62-13.71-6.93-24.6-6.93h-39.69l10.83-12.16v77.11Zm62.29,47.1l-33.62-48.24h26.4l33.81,48.24h-26.59Z" style="fill:#fff;"></path><path d="m683.85,906.29v-132.95h20.32l58.12,97.05h-10.64l57.17-97.05h20.32l.38,132.95h-23.74v-96.29h4.75l-48.24,81.29h-11.21l-49.38-81.29h5.7v96.29h-23.55Z" style="fill:#fff;"></path><path d="m912.14,908.19c-10.38,0-20.29-1.49-29.72-4.46-9.43-2.97-17-6.8-22.7-11.49l8.55-19.18c5.32,4.18,11.9,7.66,19.75,10.45,7.85,2.79,15.89,4.18,24.12,4.18,6.96,0,12.6-.76,16.9-2.28,4.3-1.52,7.47-3.58,9.5-6.17,2.02-2.59,3.04-5.54,3.04-8.83,0-4.05-1.46-7.31-4.37-9.78-2.92-2.47-6.68-4.43-11.3-5.89-4.62-1.45-9.75-2.78-15.38-3.99-5.63-1.2-11.27-2.69-16.9-4.46-5.63-1.77-10.8-4.02-15.48-6.74-4.69-2.72-8.45-6.36-11.3-10.92-2.85-4.56-4.27-10.38-4.27-17.47s1.93-13.83,5.79-19.85c3.86-6.01,9.75-10.83,17.66-14.43,7.91-3.61,17.95-5.41,30.1-5.41,7.98,0,15.89,1.02,23.74,3.04,7.85,2.03,14.69,4.94,20.51,8.74l-7.79,19.18c-5.95-3.54-12.09-6.17-18.42-7.88-6.33-1.71-12.41-2.56-18.23-2.56-6.71,0-12.22.83-16.52,2.47-4.31,1.65-7.44,3.83-9.4,6.55-1.96,2.72-2.94,5.73-2.94,9.02,0,4.05,1.42,7.31,4.27,9.78,2.85,2.47,6.58,4.4,11.21,5.79,4.62,1.39,9.78,2.72,15.48,3.99,5.7,1.27,11.33,2.75,16.9,4.46,5.57,1.71,10.7,3.93,15.38,6.65,4.68,2.72,8.45,6.33,11.3,10.83,2.85,4.5,4.27,10.23,4.27,17.19s-1.93,13.64-5.79,19.66c-3.86,6.01-9.78,10.83-17.76,14.43-7.98,3.61-18.04,5.41-30.2,5.41Z" style="fill:#fff;"></path></g><path d="m351.64,424.38c-6.03,0-10.93,4.89-10.93,10.92s4.9,10.92,10.93,10.92,10.93-4.89,10.93-10.92-4.89-10.92-10.93-10.92Zm27.46,41.01h-33.06c-11.94,0-21.62-9.68-21.62-21.62v-16.95c0-11.94,9.68-21.61,21.62-21.61h33.06c11.94,0,21.62,9.68,21.62,21.61v16.95c0,11.94-9.68,21.62-21.62,21.62Zm-33.06,10.43h23.68v8.61c0,25.01-23.16,45.29-51.72,45.29h-149.12v215.32h-54.76v-429.9c0-25.02,23.15-45.3,51.72-45.3h84.97l-17.52,21.07h-67.45c-16.9,0-30.65,10.87-30.65,24.23,0,14.59,11.84,26.42,26.44,26.42h156.36c28.56,0,51.72,20.28,51.72,45.29v7.93h-23.68c-17.68,0-32.06,14.38-32.06,32.04v16.95c0,17.67,14.37,32.05,32.06,32.05Z" style="fill:#fff;"></path><path d="m259,718.75c-6.51-4.82-11.75-10.94-15.75-18.36-3.99-7.42-6.87-15.58-8.65-24.48-1.77-8.9-2.66-17.43-2.66-25.59,0-6.68.59-13.39,1.77-20.14,1.18-6.75,3.25-12.91,6.21-18.47,2.96-5.56,7.02-10.09,12.2-13.57,5.17-3.48,11.75-5.23,19.74-5.23,9.61,0,17.67,2.45,24.17,7.34,6.5,4.9,11.75,11.09,15.75,18.58,3.99,7.49,6.84,15.69,8.54,24.59,1.7,8.9,2.55,17.36,2.55,25.37,0,6.53-.56,13.21-1.66,20.03-1.11,6.82-3.14,12.98-6.1,18.47-2.96,5.49-7.02,9.98-12.2,13.46-5.18,3.49-11.75,5.23-19.74,5.23-9.61,0-17.67-2.41-24.17-7.23Zm50.68,20.36c11.16-4.3,20.77-10.35,28.83-18.14,8.06-7.79,14.31-17.21,18.74-28.26,4.44-11.05,6.65-23.26,6.65-36.61,0-11.72-2-22.62-5.99-32.71-3.99-10.09-9.57-18.84-16.74-26.26-7.17-7.42-15.82-13.24-25.95-17.47-10.13-4.23-21.33-6.34-33.6-6.34-13.31,0-25.51,2.11-36.59,6.34-11.09,4.23-20.63,10.16-28.61,17.8-7.98,7.64-14.23,16.88-18.74,27.71-4.51,10.83-6.76,22.77-6.76,35.83,0,11.87,1.96,22.96,5.88,33.27,3.92,10.31,9.5,19.25,16.74,26.81,7.24,7.57,15.86,13.54,25.84,17.91,9.98,4.37,21.1,6.56,33.38,6.56,13.45,0,25.76-2.15,36.93-6.45Z" style="fill:#fff;"></path><path d="m483.55,627.4c3.25.45,6.5.67,9.76.67,7.69,0,14.12-1.74,19.3-5.23,5.17-3.48,7.76-9.16,7.76-17.02,0-6.23-1.37-11.42-4.1-15.58-2.74-4.15-6.32-7.49-10.76-10.01-4.44-2.52-9.43-4.3-14.97-5.34-5.54-1.04-11.13-1.56-16.74-1.56-13.9,0-21.18,2.15-33.3,6.45-12.13,4.3-22.7,10.43-31.71,18.36-9.02,7.94-16.12,17.51-21.29,28.71-5.18,11.2-7.76,23.7-7.76,37.5,0,10.68,1.62,20.92,4.88,30.71,3.25,9.79,7.98,18.44,14.19,25.93,6.21,7.49,13.86,13.46,22.95,17.91,9.09,4.45,19.55,6.68,31.38,6.68,3.99,0,9.09-.56,15.3-1.67,6.21-1.11,12.94-2.67,20.18-4.67,7.24-2,14.71-4.38,22.4-7.12,7.69-2.74,15.01-5.68,21.96-8.79l-5.1-12.46c-3.11,1.04-6.51,2.04-10.2,3-3.7.97-7.47,1.78-11.31,2.45-3.85.67-7.62,1.22-11.31,1.67-3.7.45-7.02.67-9.98.67-11.39,0-21.22-1.85-29.5-5.56-8.28-3.71-15.12-8.82-20.51-15.35-5.4-6.53-9.43-14.13-12.09-22.81-2.66-8.68-3.99-18.06-3.99-28.15,0-7.27.81-14.09,2.44-20.47,1.63-6.38,4.21-11.94,7.76-16.69,3.55-4.75,8.17-8.53,13.86-11.35,5.69-2.82,12.68-4.23,20.96-4.23,5.77,0,5.17.41,8.49,1.82,3.33,1.41,5.29,3.71,7.06,6.3,1.77,2.6,2.88,5.67,3.33,9.24.44,3.56.67,7.49.67,11.8v4.23Z" style="fill:#fff;"></path><path d="m516.62,470.25c3.25-.44,6.28-.67,9.09-.67,5.77,0,9.9,1.45,12.42,4.34,2.51,2.89,3.77,8.27,3.77,16.13l.49,255.37h38.7l.23-88.43s70.85,88.43,72.88,88.43h45.87c-.84-.84-82.54-99.81-82.54-99.81l56.87-71.69c1.18-1.19,1.77-2.15,1.77-2.89,0-2.37-1.26-3.56-3.77-3.56-1.18,0-3.22.11-6.1.33-2.88.22-6.14.56-9.76,1-3.62.44-7.36,1-11.2,1.67-3.85.67-7.39,1.45-10.64,2.34-2.07.6-3.81,1.26-5.21,2-1.41.74-2.85,1.86-4.32,3.34l-43.84,63.16.06-185.96c0-5.34-2.37-8.01-7.1-8.01-2.07,0-8.36.93-18.85,2.78-10.5,1.86-23.88,5.01-40.14,9.46l1.33,10.68Z" style="fill:#fff;"></path><path d="m717.7,651.29c-1.46-6.05-2.14-12.05-2.05-17.99.1-5.94,1.2-11.41,3.29-16.43,2.1-5.02,5.27-9.44,9.52-13.28,4.25-3.83,9.79-6.67,16.63-8.51,4.27-1.15,8.32-1.44,12.14-.85,3.82.58,7.22,1.89,10.21,3.93,2.98,2.04,5.56,4.69,7.73,7.94,2.16,3.26,3.78,6.89,4.85,10.9.53,2.01.98,3.96,1.33,5.86.35,1.9.58,3.91.69,6.03l-64.35,22.4Zm125.88,36.56c-5.48,4.09-11.88,8-19.2,11.74-7.33,3.74-14.41,6.53-21.25,8.37-10.26,2.76-19.74,3.71-28.45,2.83-8.71-.88-16.53-3.3-23.47-7.27-6.94-3.97-12.89-9.27-17.87-15.91-4.98-6.64-8.96-14.4-11.93-23.28l99.01-32.44c-.1-10.11-.99-18.31-2.67-24.62-1.95-7.31-4.88-13.73-8.8-19.28-3.92-5.54-8.6-9.93-14.04-13.15-5.44-3.22-11.63-5.23-18.56-6.05-6.94-.82-14.47-.13-22.59,2.06-12.4,3.34-23.59,8.62-33.57,15.84-9.99,7.22-18.13,15.79-24.42,25.7-6.29,9.91-10.42,20.93-12.38,33.05-1.96,12.12-1.19,24.78,2.32,37.95,2.71,10.17,6.89,19.56,12.55,28.17,5.65,8.61,12.47,15.72,20.46,21.32,7.98,5.6,17.01,9.39,27.08,11.36,10.07,1.97,20.88,1.4,32.42-1.71,4.13-1.11,9.15-3.04,15.06-5.79,5.91-2.75,12.2-6.09,18.86-10.03,6.66-3.94,13.39-8.33,20.2-13.16,6.81-4.83,13.19-9.81,19.15-14.95l-7.91-10.77Z" style="fill:#fff;"></path><path d="m834.63,598.69l25.5-.67v99.03c0,7.87,1.11,14.8,3.33,20.81,2.22,6.01,5.32,11.09,9.31,15.24,3.99,4.15,8.76,7.27,14.31,9.35,5.55,2.08,11.64,3.12,18.3,3.12,2.36,0,5.73-.45,10.09-1.34,4.36-.89,9.2-2.15,14.53-3.78,5.32-1.63,10.9-3.52,16.75-5.67,5.84-2.15,11.57-4.49,17.19-7.01l-4.66-13.57c-6.65,2.52-12.46,4.27-17.41,5.23-4.96.97-9.43,1.45-13.42,1.45-8.58,0-15.53-2.26-20.85-6.79-5.32-4.52-7.98-11.76-7.98-21.7v-94.58l46.84-1.49v-18.01s-40.85,1.81-46.84,2.08v-45.77c0-3.71-1.63-5.56-4.88-5.56-1.18,0-2.85.26-4.99.78-2.14.52-4.58,1.19-7.32,2-2.74.82-5.62,1.75-8.65,2.78-3.03,1.04-5.95,2.08-8.76,3.12-2.07.74-3.4,1.82-3.99,3.23-.59,1.41-.89,3.67-.89,6.79v36.36c-4.43.3-8.95.6-13.53.89-4.58.3-8.8.59-12.64.89l.67,12.82Z" style="fill:#fff;"></path><path d="m351.5,424.34c-6.03,0-10.93,4.89-10.93,10.92s4.9,10.92,10.93,10.92,10.93-4.89,10.93-10.92-4.89-10.92-10.93-10.92Zm27.46,41.01h-33.06c-11.94,0-21.62-9.68-21.62-21.62v-16.95c0-11.94,9.68-21.61,21.62-21.61h33.06c11.94,0,21.62,9.68,21.62,21.61v16.95c0,11.94-9.68,21.62-21.62,21.62Zm88.31-163.43s-21.62,9.62-42.6,32.58c-25.99,33.68-42.27,34.38-42.27,34.38-2.42-7.13-9.26-16.21-9.26-16.21,0,0,24.52-8.55,44-25.68,12.64-11.11,22.03-26.96,25.06-42.61,0,0-34.44-14.72-63.23-36.48-27.56-20.83-47.02-54.25-54.54-53.75-13.03,75.19-42,61.72-72.31,131.56-3.86-.4-27.4,0-27.4,0,0,0,29.9-29.15,54.61-58.88,22.08-26.56,25.06-77.69,25.06-77.69,11.95-16.68,27.92-13.46,35.08-7.52,0,0,21.87,32.61,54.02,56.77,33.42,25.12,78.78,35.96,78.78,35.96,18.18,6.94,11.14,18.22-5.01,27.57Z" style="fill:#fff;"></path><path d="m377.46,225.01c3.77-9.32,7.01-20.82,9.62-35.86,7.52-.5,26.98,32.92,54.54,53.75,28.79,21.76,68.24,41.49,68.24,41.49-3.03,15.65-29.96,36.51-42.59,47.62-19.48,17.13-82.85,40.41-82.85,40.41,0,0,2.96,13.57.92,22.76,0,0,63.46-21.98,89.45-55.65,20.98-22.96,57.63-40.1,57.63-40.1,16.15-9.35,23.19-20.62,5.01-27.57,0,0-47.86-13.35-81.28-38.46-32.15-24.16-54.02-56.77-54.02-56.77-7.16-5.94-23.12-9.16-35.08,7.52,0,0-.68,11.66-3.79,26.73-1.19,5.77,11.86,19.98,14.22,14.15Z" style="fill:#fff;"></path><g><path d="m365.35,302.25c-.04-.34-.2-.62-.49-.85l-5.17-4.22c.94-2.04,1.41-4.09,1.41-6.16l7.04,5.75c.28.23.58.32.91.28.32-.04.59-.21.81-.51l2.37-3.24c.22-.3.3-.61.26-.95-.04-.34-.2-.62-.49-.85l-25.14-20.53c-.28-.23-.58-.32-.91-.28-.32.04-.59.21-.81.51l-3.09,4.23c-.2.28-.28.59-.24.95.04.36.2.64.46.86l4.38,3.58c4.25,3.47,6.07,6.87,5.47,10.2l-12.48-10.19c-.28-.23-.58-.32-.9-.28-.32.04-.59.21-.81.51l-2.37,3.24c-.22.3-.3.61-.26.95.04.34.2.62.48.85l12.9,10.54c-1.71,1.38-3.71,1.86-6,1.44-2.29-.41-4.76-1.7-7.42-3.88l-3.38-2.76c-.26-.21-.56-.3-.9-.25-.34.04-.61.2-.81.48l-2.95,4.04c-.2.28-.28.58-.24.92.82,19.49.75,17.65,1.18,27.79,0,0,9.12-.27,9.12-.39-.84-19.9-.13-3.09-.85-20.05,3.61,2.56,6.62,2.98,10.15,2.81,3.53-.16,6.64-1.58,9.33-4.25l5.08,4.15c.28.23.58.32.9.28.32-.04.59-.21.81-.51l2.37-3.24c.22-.3.3-.61.26-.95Z" style="fill:#fff;"></path><g style="clip-path:url(#clippath);"><rect x="96.69" y="164.71" width="783.85" height="587.89" style="fill:#fff;"></rect></g></g></svg>