<svg width="241" height="77" viewBox="0 0 241 77" fill="none" xmlns="http://www.w3.org/2000/svg">
<path d="M42.5479 25.9408C42.4454 24.8895 42.4023 23.7315 42.2095 22.5981C41.2074 16.6892 38.5376 11.9547 32.6676 9.67154C29.2316 8.33509 25.6448 8.21098 22.0447 8.93511C17.2004 9.9095 13.666 12.6593 11.4751 17.0656C9.42788 21.1847 8.94273 25.5408 9.83917 30.0476C12.1018 41.4264 24.6202 47.1199 34.5097 41.17C40.1509 37.7771 42.2946 32.3851 42.5479 25.9408ZM40.6751 48.3302C32.6297 52.7273 24.5699 53.2401 16.3768 50.6113C8.0145 47.9282 3.0451 41.8572 0.99478 33.4764C-1.09862 24.9254 0.00910569 16.7877 5.29954 9.54846C9.44736 3.87443 15.2947 1.03639 22.1729 0.247642C27.6951 -0.384173 33.1056 0.12661 38.1837 2.54618C45.4301 5.99757 49.5451 11.9434 51.1585 19.6401C52.7893 27.4219 51.7236 34.8221 47.384 41.6193C47.3317 41.7003 47.3122 41.8029 47.306 41.8203C49.2189 43.845 51.1021 45.8379 52.897 47.7374C50.8036 49.8913 48.6558 52.0996 46.3952 54.4248C44.4649 52.3673 42.5479 50.3252 40.6751 48.3302Z" fill="#007EE5"/>
<path d="M172.202 33.7224C172.226 27.795 167.767 23.3005 161.875 23.3159C156.004 23.3303 151.837 27.5786 151.822 33.5645C151.805 39.5339 156.074 43.9668 161.867 43.9966C167.762 44.0274 172.177 39.6385 172.202 33.7224ZM172.809 20.3876V1.3757H181.505V51.2912H177.978C176.825 51.2912 175.665 51.2204 174.518 51.3127C173.514 51.3927 173.241 50.9743 173.198 50.0594C173.145 48.9455 172.953 47.8388 172.806 46.6121C172.636 46.7495 172.527 46.8049 172.462 46.8941C170.372 49.7824 167.499 51.3907 164.016 51.8368C158.656 52.523 153.664 51.5384 149.343 48.1167C146.242 45.6613 144.397 42.3873 143.564 38.5544C142.713 34.6383 142.812 30.7233 143.974 26.8801C145.999 20.1825 151.587 15.8531 158.672 15.2828C161.641 15.0428 164.488 15.3526 167.242 16.4983C169.364 17.3814 171.25 18.5855 172.809 20.3876Z" fill="black"/>
<path d="M65.0079 33.5434C64.8971 41.6011 71.7209 45.7797 78.6473 43.9006C85.9039 41.9313 88.3922 31.8089 83.0967 26.1021C80.2925 23.0794 75.4615 22.0927 71.3496 23.7041C67.3208 25.2826 65.0232 28.8468 65.0079 33.5434ZM86.0106 20.7932C86.1234 19.1019 86.2198 17.6577 86.3224 16.1325H94.6991V51.2157H86.4804C86.3316 49.6413 86.1829 48.07 86.0157 46.2966C83.8393 49.7367 80.6648 51.3029 77.0001 52.066C67.1002 54.1307 57.7635 47.4936 56.4784 37.4953C56.0732 34.3393 56.0517 31.1976 56.8496 28.097C58.6877 20.9645 63.3822 16.8351 70.5229 15.5735C72.7538 15.1786 75.1354 15.2002 77.3919 15.4781C80.8843 15.9089 83.7921 17.6085 86.0106 20.7932Z" fill="black"/>
<path d="M232.44 29.5162C232.096 27.0351 231.027 25.0853 228.875 24.0248C224.711 21.9704 220.554 22.0975 216.621 24.6689C214.905 25.791 213.875 27.4762 213.328 29.5162H232.44ZM240.844 36.7267H213.169C213.381 38.4488 214.029 39.8479 215.125 41.0417C216.839 42.9064 219.04 43.8121 221.499 44.1044C225.776 44.6111 229.726 43.7793 233.258 41.0766C234.978 42.9177 236.73 44.7947 238.483 46.6717C238.6 46.6142 238.715 46.5568 238.831 46.4994C238.473 46.8368 238.135 47.1978 237.753 47.5076C234.088 50.4882 229.795 51.8144 225.164 52.1406C221.851 52.3744 218.574 52.0442 215.445 50.8667C208.489 48.2481 204.964 43.0172 204.193 35.7841C203.871 32.7533 204.073 29.7378 205.104 26.8413C207.651 19.6862 212.944 16.0358 220.303 15.1137C223.086 14.765 225.868 14.9229 228.594 15.5999C235.422 17.2943 239.367 21.7488 240.586 28.5757C240.983 30.7932 240.893 33.0979 240.998 35.3646C241.018 35.7913 240.904 36.2242 240.844 36.7267Z" fill="black"/>
<path d="M110.671 51.2188H102V16.0114H109.793C109.992 17.5458 110.186 19.0382 110.398 20.6649C111.138 20.0423 111.742 19.509 112.371 19.0074C118.18 14.3806 126.022 14.2473 131.415 18.7367C134.902 21.6383 136.705 25.5359 136.893 29.9391C137.188 36.8162 137.073 43.7108 137.129 50.5982C137.131 50.7664 137.109 50.9346 137.092 51.1962H128.391C128.373 50.8146 128.341 50.4228 128.341 50.031C128.337 44.4657 128.365 38.8994 128.319 33.3341C128.309 32.0561 128.198 30.7401 127.872 29.5114C126.993 26.1964 124.852 24.0753 121.413 23.5368C117.89 22.986 114.897 24.0373 112.696 26.9421C111.273 28.819 110.675 30.9863 110.673 33.3238C110.668 38.8901 110.671 44.4555 110.671 50.0218V51.2188Z" fill="black"/>
<path d="M189.289 1.36318H197.876V51.2202H189.289V1.36318Z" fill="black"/>
<path d="M207.679 60.8535V76.0656C207.679 76.1085 207.644 76.1476 207.597 76.1476H204.721C204.693 76.1476 204.67 76.1359 204.654 76.1124L199.138 68.1667C199.094 68.1003 198.992 68.1316 198.992 68.2096V76.0656C198.992 76.1085 198.957 76.1476 198.91 76.1476H195.5C195.457 76.1476 195.418 76.1124 195.418 76.0656V60.8535C195.418 60.8105 195.453 60.7715 195.5 60.7715H198.376C198.404 60.7715 198.427 60.7832 198.443 60.8066L203.96 68.7524C204.003 68.8188 204.105 68.7875 204.105 68.7094V60.8535C204.105 60.8105 204.14 60.7715 204.187 60.7715H207.597C207.64 60.7754 207.679 60.8105 207.679 60.8535Z" fill="#263B74"/>
<path d="M177.024 76.0734L176.989 68.3268C176.989 68.2448 176.879 68.2175 176.844 68.2916L173.697 74.5897C173.685 74.617 173.658 74.6326 173.626 74.6326H172.104C172.076 74.6326 172.049 74.617 172.033 74.5897L168.91 68.5064C168.875 68.4361 168.765 68.4595 168.765 68.5415V76.0734C168.765 76.1164 168.73 76.1515 168.686 76.1515H165.469C165.426 76.1515 165.391 76.1164 165.391 76.0734V60.8496C165.391 60.8066 165.426 60.7715 165.469 60.7715H168.345C168.373 60.7715 168.4 60.7871 168.416 60.8144L172.849 69.506C172.877 69.5606 172.959 69.5606 172.991 69.506L177.318 60.8144C177.33 60.7871 177.358 60.7715 177.389 60.7715H180.265C180.308 60.7715 180.344 60.8066 180.344 60.8496L180.379 76.0695C180.379 76.1125 180.344 76.1476 180.3 76.1476H177.107C177.063 76.1476 177.028 76.1164 177.024 76.0734Z" fill="#263B74"/>
<path d="M189.763 70.6534V76.0651C189.763 76.1081 189.728 76.1471 189.681 76.1471H186.201C186.158 76.1471 186.118 76.112 186.118 76.0651V70.5909C186.118 70.5792 186.114 70.5675 186.11 70.5558L181.261 60.892C181.233 60.8374 181.273 60.7749 181.335 60.7749H185C185.031 60.7749 185.059 60.7944 185.075 60.8179L188.033 66.7332C188.061 66.7918 188.151 66.7918 188.178 66.7332L191.137 60.8179C191.148 60.7905 191.18 60.7749 191.211 60.7749H194.562C194.621 60.7749 194.664 60.8374 194.637 60.892L189.771 70.6183C189.763 70.63 189.763 70.6417 189.763 70.6534Z" fill="#263B74"/>
<path d="M208.551 60.853C208.551 60.81 208.586 60.7749 208.629 60.7749H214.64C218.913 60.7749 221.836 63.7385 221.836 68.463C221.836 73.1875 218.909 76.151 214.64 76.151H208.629C208.586 76.151 208.551 76.1159 208.551 76.0729V60.853ZM214.495 72.676C216.684 72.676 218.16 71.118 218.16 68.459C218.16 65.8001 216.688 64.2421 214.495 64.2421H212.274C212.231 64.2421 212.196 64.2773 212.196 64.3202V72.594C212.196 72.6369 212.231 72.6721 212.274 72.6721L214.495 72.676Z" fill="#263B74"/>
<path d="M234.418 68.5298C234.477 68.4595 234.477 68.3541 234.418 68.2799L228.101 60.8418C228.062 60.7988 228.007 60.7715 227.952 60.7715H223.742C223.577 60.7715 223.487 60.9628 223.593 61.0917L229.702 68.276C229.761 68.3463 229.761 68.4517 229.702 68.5259L223.538 75.9211C223.432 76.05 223.522 76.2413 223.687 76.2413H227.897C227.956 76.2413 228.011 76.2179 228.046 76.171L232.158 71.2747L234.418 68.5298Z" fill="#ED3C95"/>
<mask id="mask0_8978_4" style="mask-type:luminance" maskUnits="userSpaceOnUse" x="223" y="60" width="12" height="17">
<path d="M234.418 68.5298C234.477 68.4595 234.477 68.3541 234.418 68.2799L228.101 60.8418C228.062 60.7988 228.007 60.7715 227.952 60.7715H223.742C223.577 60.7715 223.487 60.9628 223.593 61.0917L229.702 68.276C229.761 68.3463 229.761 68.4517 229.702 68.5259L223.538 75.9211C223.432 76.05 223.522 76.2413 223.687 76.2413H227.897C227.956 76.2413 228.011 76.2179 228.046 76.171L232.158 71.2747L234.418 68.5298Z" fill="white"/>
</mask>
<g mask="url(#mask0_8978_4)">
<path d="M223.761 61.242C223.891 61.242 223.996 61.1371 223.996 61.0077C223.996 60.8783 223.891 60.7734 223.761 60.7734C223.631 60.7734 223.525 60.8783 223.525 61.0077C223.525 61.1371 223.631 61.242 223.761 61.242Z" fill="#ED3C95"/>
<path d="M224.562 61.242C224.692 61.242 224.797 61.1371 224.797 61.0077C224.797 60.8783 224.692 60.7734 224.562 60.7734C224.432 60.7734 224.326 60.8783 224.326 61.0077C224.326 61.1371 224.432 61.242 224.562 61.242Z" fill="#ED3C95"/>
<path d="M225.362 61.242C225.492 61.242 225.598 61.1371 225.598 61.0077C225.598 60.8783 225.492 60.7734 225.362 60.7734C225.232 60.7734 225.127 60.8783 225.127 61.0077C225.127 61.1371 225.232 61.242 225.362 61.242Z" fill="#ED3C95"/>
<path d="M226.163 61.242C226.293 61.242 226.399 61.1371 226.399 61.0077C226.399 60.8783 226.293 60.7734 226.163 60.7734C226.033 60.7734 225.928 60.8783 225.928 61.0077C225.928 61.1371 226.033 61.242 226.163 61.242Z" fill="#ED3C95"/>
<path d="M226.962 61.242C227.092 61.242 227.197 61.1371 227.197 61.0077C227.197 60.8783 227.092 60.7734 226.962 60.7734C226.832 60.7734 226.727 60.8783 226.727 61.0077C226.727 61.1371 226.832 61.242 226.962 61.242Z" fill="#ED3C95"/>
<path d="M227.763 61.242C227.893 61.242 227.998 61.1371 227.998 61.0077C227.998 60.8783 227.893 60.7734 227.763 60.7734C227.633 60.7734 227.527 60.8783 227.527 61.0077C227.527 61.1371 227.633 61.242 227.763 61.242Z" fill="#ED3C95"/>
<path d="M228.567 61.242C228.697 61.242 228.803 61.1371 228.803 61.0077C228.803 60.8783 228.697 60.7734 228.567 60.7734C228.437 60.7734 228.332 60.8783 228.332 61.0077C228.332 61.1371 228.437 61.242 228.567 61.242Z" fill="#ED3C95"/>
<path d="M229.364 61.242C229.494 61.242 229.6 61.1371 229.6 61.0077C229.6 60.8783 229.494 60.7734 229.364 60.7734C229.234 60.7734 229.129 60.8783 229.129 61.0077C229.129 61.1371 229.234 61.242 229.364 61.242Z" fill="#ED3C95"/>
<path d="M230.169 61.242C230.299 61.242 230.404 61.1371 230.404 61.0077C230.404 60.8783 230.299 60.7734 230.169 60.7734C230.039 60.7734 229.934 60.8783 229.934 61.0077C229.934 61.1371 230.039 61.242 230.169 61.242Z" fill="#ED3C95"/>
<path d="M230.968 61.242C231.098 61.242 231.203 61.1371 231.203 61.0077C231.203 60.8783 231.098 60.7734 230.968 60.7734C230.838 60.7734 230.732 60.8783 230.732 61.0077C230.732 61.1371 230.838 61.242 230.968 61.242Z" fill="#ED3C95"/>
<path d="M231.769 61.242C231.899 61.242 232.004 61.1371 232.004 61.0077C232.004 60.8783 231.899 60.7734 231.769 60.7734C231.639 60.7734 231.533 60.8783 231.533 61.0077C231.533 61.1371 231.639 61.242 231.769 61.242Z" fill="#ED3C95"/>
<path d="M232.569 61.242C232.699 61.242 232.805 61.1371 232.805 61.0077C232.805 60.8783 232.699 60.7734 232.569 60.7734C232.439 60.7734 232.334 60.8783 232.334 61.0077C232.334 61.1371 232.439 61.242 232.569 61.242Z" fill="#ED3C95"/>
<path d="M233.37 61.242C233.5 61.242 233.606 61.1371 233.606 61.0077C233.606 60.8783 233.5 60.7734 233.37 60.7734C233.24 60.7734 233.135 60.8783 233.135 61.0077C233.135 61.1371 233.24 61.242 233.37 61.242Z" fill="#ED3C95"/>
<path d="M234.171 61.242C234.301 61.242 234.406 61.1371 234.406 61.0077C234.406 60.8783 234.301 60.7734 234.171 60.7734C234.041 60.7734 233.936 60.8783 233.936 61.0077C233.936 61.1371 234.041 61.242 234.171 61.242Z" fill="#ED3C95"/>
<path d="M223.761 61.993C223.891 61.993 223.996 61.8881 223.996 61.7587C223.996 61.6293 223.891 61.5244 223.761 61.5244C223.631 61.5244 223.525 61.6293 223.525 61.7587C223.525 61.8881 223.631 61.993 223.761 61.993Z" fill="#ED3C95"/>
<path d="M224.562 61.993C224.692 61.993 224.797 61.8881 224.797 61.7587C224.797 61.6293 224.692 61.5244 224.562 61.5244C224.432 61.5244 224.326 61.6293 224.326 61.7587C224.326 61.8881 224.432 61.993 224.562 61.993Z" fill="#ED3C95"/>
<path d="M225.362 61.993C225.492 61.993 225.598 61.8881 225.598 61.7587C225.598 61.6293 225.492 61.5244 225.362 61.5244C225.232 61.5244 225.127 61.6293 225.127 61.7587C225.127 61.8881 225.232 61.993 225.362 61.993Z" fill="#ED3C95"/>
<path d="M226.163 61.993C226.293 61.993 226.399 61.8881 226.399 61.7587C226.399 61.6293 226.293 61.5244 226.163 61.5244C226.033 61.5244 225.928 61.6293 225.928 61.7587C225.928 61.8881 226.033 61.993 226.163 61.993Z" fill="#ED3C95"/>
<path d="M226.962 61.993C227.092 61.993 227.197 61.8881 227.197 61.7587C227.197 61.6293 227.092 61.5244 226.962 61.5244C226.832 61.5244 226.727 61.6293 226.727 61.7587C226.727 61.8881 226.832 61.993 226.962 61.993Z" fill="#ED3C95"/>
<path d="M227.763 61.993C227.893 61.993 227.998 61.8881 227.998 61.7587C227.998 61.6293 227.893 61.5244 227.763 61.5244C227.633 61.5244 227.527 61.6293 227.527 61.7587C227.527 61.8881 227.633 61.993 227.763 61.993Z" fill="#ED3C95"/>
<path d="M228.567 61.993C228.697 61.993 228.803 61.8881 228.803 61.7587C228.803 61.6293 228.697 61.5244 228.567 61.5244C228.437 61.5244 228.332 61.6293 228.332 61.7587C228.332 61.8881 228.437 61.993 228.567 61.993Z" fill="#ED3C95"/>
<path d="M229.364 61.993C229.494 61.993 229.6 61.8881 229.6 61.7587C229.6 61.6293 229.494 61.5244 229.364 61.5244C229.234 61.5244 229.129 61.6293 229.129 61.7587C229.129 61.8881 229.234 61.993 229.364 61.993Z" fill="#ED3C95"/>
<path d="M230.169 61.993C230.299 61.993 230.404 61.8881 230.404 61.7587C230.404 61.6293 230.299 61.5244 230.169 61.5244C230.039 61.5244 229.934 61.6293 229.934 61.7587C229.934 61.8881 230.039 61.993 230.169 61.993Z" fill="#ED3C95"/>
<path d="M230.968 61.993C231.098 61.993 231.203 61.8881 231.203 61.7587C231.203 61.6293 231.098 61.5244 230.968 61.5244C230.838 61.5244 230.732 61.6293 230.732 61.7587C230.732 61.8881 230.838 61.993 230.968 61.993Z" fill="#ED3C95"/>
<path d="M231.769 61.993C231.899 61.993 232.004 61.8881 232.004 61.7587C232.004 61.6293 231.899 61.5244 231.769 61.5244C231.639 61.5244 231.533 61.6293 231.533 61.7587C231.533 61.8881 231.639 61.993 231.769 61.993Z" fill="#ED3C95"/>
<path d="M232.569 61.993C232.699 61.993 232.805 61.8881 232.805 61.7587C232.805 61.6293 232.699 61.5244 232.569 61.5244C232.439 61.5244 232.334 61.6293 232.334 61.7587C232.334 61.8881 232.439 61.993 232.569 61.993Z" fill="#ED3C95"/>
<path d="M233.37 61.993C233.5 61.993 233.606 61.8881 233.606 61.7587C233.606 61.6293 233.5 61.5244 233.37 61.5244C233.24 61.5244 233.135 61.6293 233.135 61.7587C233.135 61.8881 233.24 61.993 233.37 61.993Z" fill="#ED3C95"/>
<path d="M234.171 61.993C234.301 61.993 234.406 61.8881 234.406 61.7587C234.406 61.6293 234.301 61.5244 234.171 61.5244C234.041 61.5244 233.936 61.6293 233.936 61.7587C233.936 61.8881 234.041 61.993 234.171 61.993Z" fill="#ED3C95"/>
<path d="M223.761 62.742C223.891 62.742 223.996 62.6371 223.996 62.5077C223.996 62.3783 223.891 62.2734 223.761 62.2734C223.631 62.2734 223.525 62.3783 223.525 62.5077C223.525 62.6371 223.631 62.742 223.761 62.742Z" fill="#ED3C95"/>
<path d="M224.562 62.742C224.692 62.742 224.797 62.6371 224.797 62.5077C224.797 62.3783 224.692 62.2734 224.562 62.2734C224.432 62.2734 224.326 62.3783 224.326 62.5077C224.326 62.6371 224.432 62.742 224.562 62.742Z" fill="#ED3C95"/>
<path d="M225.362 62.742C225.492 62.742 225.598 62.6371 225.598 62.5077C225.598 62.3783 225.492 62.2734 225.362 62.2734C225.232 62.2734 225.127 62.3783 225.127 62.5077C225.127 62.6371 225.232 62.742 225.362 62.742Z" fill="#ED3C95"/>
<path d="M226.163 62.742C226.293 62.742 226.399 62.6371 226.399 62.5077C226.399 62.3783 226.293 62.2734 226.163 62.2734C226.033 62.2734 225.928 62.3783 225.928 62.5077C225.928 62.6371 226.033 62.742 226.163 62.742Z" fill="#ED3C95"/>
<path d="M226.962 62.742C227.092 62.742 227.197 62.6371 227.197 62.5077C227.197 62.3783 227.092 62.2734 226.962 62.2734C226.832 62.2734 226.727 62.3783 226.727 62.5077C226.727 62.6371 226.832 62.742 226.962 62.742Z" fill="#ED3C95"/>
<path d="M227.763 62.742C227.893 62.742 227.998 62.6371 227.998 62.5077C227.998 62.3783 227.893 62.2734 227.763 62.2734C227.633 62.2734 227.527 62.3783 227.527 62.5077C227.527 62.6371 227.633 62.742 227.763 62.742Z" fill="#ED3C95"/>
<path d="M228.567 62.742C228.697 62.742 228.803 62.6371 228.803 62.5077C228.803 62.3783 228.697 62.2734 228.567 62.2734C228.437 62.2734 228.332 62.3783 228.332 62.5077C228.332 62.6371 228.437 62.742 228.567 62.742Z" fill="#ED3C95"/>
<path d="M229.364 62.742C229.494 62.742 229.6 62.6371 229.6 62.5077C229.6 62.3783 229.494 62.2734 229.364 62.2734C229.234 62.2734 229.129 62.3783 229.129 62.5077C229.129 62.6371 229.234 62.742 229.364 62.742Z" fill="#ED3C95"/>
<path d="M230.169 62.742C230.299 62.742 230.404 62.6371 230.404 62.5077C230.404 62.3783 230.299 62.2734 230.169 62.2734C230.039 62.2734 229.934 62.3783 229.934 62.5077C229.934 62.6371 230.039 62.742 230.169 62.742Z" fill="#ED3C95"/>
<path d="M230.968 62.742C231.098 62.742 231.203 62.6371 231.203 62.5077C231.203 62.3783 231.098 62.2734 230.968 62.2734C230.838 62.2734 230.732 62.3783 230.732 62.5077C230.732 62.6371 230.838 62.742 230.968 62.742Z" fill="#ED3C95"/>
<path d="M231.769 62.742C231.899 62.742 232.004 62.6371 232.004 62.5077C232.004 62.3783 231.899 62.2734 231.769 62.2734C231.639 62.2734 231.533 62.3783 231.533 62.5077C231.533 62.6371 231.639 62.742 231.769 62.742Z" fill="#ED3C95"/>
<path d="M232.569 62.742C232.699 62.742 232.805 62.6371 232.805 62.5077C232.805 62.3783 232.699 62.2734 232.569 62.2734C232.439 62.2734 232.334 62.3783 232.334 62.5077C232.334 62.6371 232.439 62.742 232.569 62.742Z" fill="#ED3C95"/>
<path d="M233.37 62.742C233.5 62.742 233.606 62.6371 233.606 62.5077C233.606 62.3783 233.5 62.2734 233.37 62.2734C233.24 62.2734 233.135 62.3783 233.135 62.5077C233.135 62.6371 233.24 62.742 233.37 62.742Z" fill="#ED3C95"/>
<path d="M234.171 62.742C234.301 62.742 234.406 62.6371 234.406 62.5077C234.406 62.3783 234.301 62.2734 234.171 62.2734C234.041 62.2734 233.936 62.3783 233.936 62.5077C233.936 62.6371 234.041 62.742 234.171 62.742Z" fill="#ED3C95"/>
<path d="M223.761 63.4969C223.891 63.4969 223.996 63.392 223.996 63.2626C223.996 63.1332 223.891 63.0283 223.761 63.0283C223.631 63.0283 223.525 63.1332 223.525 63.2626C223.525 63.392 223.631 63.4969 223.761 63.4969Z" fill="#ED3C95"/>
<path d="M224.562 63.4969C224.692 63.4969 224.797 63.392 224.797 63.2626C224.797 63.1332 224.692 63.0283 224.562 63.0283C224.432 63.0283 224.326 63.1332 224.326 63.2626C224.326 63.392 224.432 63.4969 224.562 63.4969Z" fill="#ED3C95"/>
<path d="M225.362 63.4969C225.492 63.4969 225.598 63.392 225.598 63.2626C225.598 63.1332 225.492 63.0283 225.362 63.0283C225.232 63.0283 225.127 63.1332 225.127 63.2626C225.127 63.392 225.232 63.4969 225.362 63.4969Z" fill="#ED3C95"/>
<path d="M226.163 63.4969C226.293 63.4969 226.399 63.392 226.399 63.2626C226.399 63.1332 226.293 63.0283 226.163 63.0283C226.033 63.0283 225.928 63.1332 225.928 63.2626C225.928 63.392 226.033 63.4969 226.163 63.4969Z" fill="#ED3C95"/>
<path d="M226.962 63.4969C227.092 63.4969 227.197 63.392 227.197 63.2626C227.197 63.1332 227.092 63.0283 226.962 63.0283C226.832 63.0283 226.727 63.1332 226.727 63.2626C226.727 63.392 226.832 63.4969 226.962 63.4969Z" fill="#ED3C95"/>
<path d="M227.763 63.4969C227.893 63.4969 227.998 63.392 227.998 63.2626C227.998 63.1332 227.893 63.0283 227.763 63.0283C227.633 63.0283 227.527 63.1332 227.527 63.2626C227.527 63.392 227.633 63.4969 227.763 63.4969Z" fill="#ED3C95"/>
<path d="M228.567 63.4969C228.697 63.4969 228.803 63.392 228.803 63.2626C228.803 63.1332 228.697 63.0283 228.567 63.0283C228.437 63.0283 228.332 63.1332 228.332 63.2626C228.332 63.392 228.437 63.4969 228.567 63.4969Z" fill="#ED3C95"/>
<path d="M229.364 63.4969C229.494 63.4969 229.6 63.392 229.6 63.2626C229.6 63.1332 229.494 63.0283 229.364 63.0283C229.234 63.0283 229.129 63.1332 229.129 63.2626C229.129 63.392 229.234 63.4969 229.364 63.4969Z" fill="#ED3C95"/>
<path d="M230.169 63.4969C230.299 63.4969 230.404 63.392 230.404 63.2626C230.404 63.1332 230.299 63.0283 230.169 63.0283C230.039 63.0283 229.934 63.1332 229.934 63.2626C229.934 63.392 230.039 63.4969 230.169 63.4969Z" fill="#ED3C95"/>
<path d="M230.968 63.4969C231.098 63.4969 231.203 63.392 231.203 63.2626C231.203 63.1332 231.098 63.0283 230.968 63.0283C230.838 63.0283 230.732 63.1332 230.732 63.2626C230.732 63.392 230.838 63.4969 230.968 63.4969Z" fill="#ED3C95"/>
<path d="M231.769 63.4969C231.899 63.4969 232.004 63.392 232.004 63.2626C232.004 63.1332 231.899 63.0283 231.769 63.0283C231.639 63.0283 231.533 63.1332 231.533 63.2626C231.533 63.392 231.639 63.4969 231.769 63.4969Z" fill="#ED3C95"/>
<path d="M232.569 63.4969C232.699 63.4969 232.805 63.392 232.805 63.2626C232.805 63.1332 232.699 63.0283 232.569 63.0283C232.439 63.0283 232.334 63.1332 232.334 63.2626C232.334 63.392 232.439 63.4969 232.569 63.4969Z" fill="#ED3C95"/>
<path d="M233.37 63.4969C233.5 63.4969 233.606 63.392 233.606 63.2626C233.606 63.1332 233.5 63.0283 233.37 63.0283C233.24 63.0283 233.135 63.1332 233.135 63.2626C233.135 63.392 233.24 63.4969 233.37 63.4969Z" fill="#ED3C95"/>
<path d="M234.171 63.4969C234.301 63.4969 234.406 63.392 234.406 63.2626C234.406 63.1332 234.301 63.0283 234.171 63.0283C234.041 63.0283 233.936 63.1332 233.936 63.2626C233.936 63.392 234.041 63.4969 234.171 63.4969Z" fill="#ED3C95"/>
<path d="M223.761 64.2459C223.891 64.2459 223.996 64.141 223.996 64.0116C223.996 63.8822 223.891 63.7773 223.761 63.7773C223.631 63.7773 223.525 63.8822 223.525 64.0116C223.525 64.141 223.631 64.2459 223.761 64.2459Z" fill="#ED3C95"/>
<path d="M224.562 64.2459C224.692 64.2459 224.797 64.141 224.797 64.0116C224.797 63.8822 224.692 63.7773 224.562 63.7773C224.432 63.7773 224.326 63.8822 224.326 64.0116C224.326 64.141 224.432 64.2459 224.562 64.2459Z" fill="#ED3C95"/>
<path d="M225.362 64.2459C225.492 64.2459 225.598 64.141 225.598 64.0116C225.598 63.8822 225.492 63.7773 225.362 63.7773C225.232 63.7773 225.127 63.8822 225.127 64.0116C225.127 64.141 225.232 64.2459 225.362 64.2459Z" fill="#ED3C95"/>
<path d="M226.163 64.2459C226.293 64.2459 226.399 64.141 226.399 64.0116C226.399 63.8822 226.293 63.7773 226.163 63.7773C226.033 63.7773 225.928 63.8822 225.928 64.0116C225.928 64.141 226.033 64.2459 226.163 64.2459Z" fill="#ED3C95"/>
<path d="M226.962 64.2459C227.092 64.2459 227.197 64.141 227.197 64.0116C227.197 63.8822 227.092 63.7773 226.962 63.7773C226.832 63.7773 226.727 63.8822 226.727 64.0116C226.727 64.141 226.832 64.2459 226.962 64.2459Z" fill="#ED3C95"/>
<path d="M227.763 64.2459C227.893 64.2459 227.998 64.141 227.998 64.0116C227.998 63.8822 227.893 63.7773 227.763 63.7773C227.633 63.7773 227.527 63.8822 227.527 64.0116C227.527 64.141 227.633 64.2459 227.763 64.2459Z" fill="#ED3C95"/>
<path d="M228.567 64.2459C228.697 64.2459 228.803 64.141 228.803 64.0116C228.803 63.8822 228.697 63.7773 228.567 63.7773C228.437 63.7773 228.332 63.8822 228.332 64.0116C228.332 64.141 228.437 64.2459 228.567 64.2459Z" fill="#ED3C95"/>
<path d="M229.364 64.2459C229.494 64.2459 229.6 64.141 229.6 64.0116C229.6 63.8822 229.494 63.7773 229.364 63.7773C229.234 63.7773 229.129 63.8822 229.129 64.0116C229.129 64.141 229.234 64.2459 229.364 64.2459Z" fill="#ED3C95"/>
<path d="M230.169 64.2459C230.299 64.2459 230.404 64.141 230.404 64.0116C230.404 63.8822 230.299 63.7773 230.169 63.7773C230.039 63.7773 229.934 63.8822 229.934 64.0116C229.934 64.141 230.039 64.2459 230.169 64.2459Z" fill="#ED3C95"/>
<path d="M230.968 64.2459C231.098 64.2459 231.203 64.141 231.203 64.0116C231.203 63.8822 231.098 63.7773 230.968 63.7773C230.838 63.7773 230.732 63.8822 230.732 64.0116C230.732 64.141 230.838 64.2459 230.968 64.2459Z" fill="#ED3C95"/>
<path d="M231.769 64.2459C231.899 64.2459 232.004 64.141 232.004 64.0116C232.004 63.8822 231.899 63.7773 231.769 63.7773C231.639 63.7773 231.533 63.8822 231.533 64.0116C231.533 64.141 231.639 64.2459 231.769 64.2459Z" fill="#ED3C95"/>
<path d="M232.569 64.2459C232.699 64.2459 232.805 64.141 232.805 64.0116C232.805 63.8822 232.699 63.7773 232.569 63.7773C232.439 63.7773 232.334 63.8822 232.334 64.0116C232.334 64.141 232.439 64.2459 232.569 64.2459Z" fill="#ED3C95"/>
<path d="M233.37 64.2459C233.5 64.2459 233.606 64.141 233.606 64.0116C233.606 63.8822 233.5 63.7773 233.37 63.7773C233.24 63.7773 233.135 63.8822 233.135 64.0116C233.135 64.141 233.24 64.2459 233.37 64.2459Z" fill="#ED3C95"/>
<path d="M234.171 64.2459C234.301 64.2459 234.406 64.141 234.406 64.0116C234.406 63.8822 234.301 63.7773 234.171 63.7773C234.041 63.7773 233.936 63.8822 233.936 64.0116C233.936 64.141 234.041 64.2459 234.171 64.2459Z" fill="#ED3C95"/>
<path d="M223.761 64.991C223.891 64.991 223.996 64.8861 223.996 64.7567C223.996 64.6273 223.891 64.5225 223.761 64.5225C223.631 64.5225 223.525 64.6273 223.525 64.7567C223.525 64.8861 223.631 64.991 223.761 64.991Z" fill="#ED3C95"/>
<path d="M224.562 64.991C224.692 64.991 224.797 64.8861 224.797 64.7567C224.797 64.6273 224.692 64.5225 224.562 64.5225C224.432 64.5225 224.326 64.6273 224.326 64.7567C224.326 64.8861 224.432 64.991 224.562 64.991Z" fill="#ED3C95"/>
<path d="M225.362 64.991C225.492 64.991 225.598 64.8861 225.598 64.7567C225.598 64.6273 225.492 64.5225 225.362 64.5225C225.232 64.5225 225.127 64.6273 225.127 64.7567C225.127 64.8861 225.232 64.991 225.362 64.991Z" fill="#ED3C95"/>
<path d="M226.163 64.991C226.293 64.991 226.399 64.8861 226.399 64.7567C226.399 64.6273 226.293 64.5225 226.163 64.5225C226.033 64.5225 225.928 64.6273 225.928 64.7567C225.928 64.8861 226.033 64.991 226.163 64.991Z" fill="#ED3C95"/>
<path d="M226.962 64.991C227.092 64.991 227.197 64.8861 227.197 64.7567C227.197 64.6273 227.092 64.5225 226.962 64.5225C226.832 64.5225 226.727 64.6273 226.727 64.7567C226.727 64.8861 226.832 64.991 226.962 64.991Z" fill="#ED3C95"/>
<path d="M227.763 64.991C227.893 64.991 227.998 64.8861 227.998 64.7567C227.998 64.6273 227.893 64.5225 227.763 64.5225C227.633 64.5225 227.527 64.6273 227.527 64.7567C227.527 64.8861 227.633 64.991 227.763 64.991Z" fill="#ED3C95"/>
<path d="M228.567 64.991C228.697 64.991 228.803 64.8861 228.803 64.7567C228.803 64.6273 228.697 64.5225 228.567 64.5225C228.437 64.5225 228.332 64.6273 228.332 64.7567C228.332 64.8861 228.437 64.991 228.567 64.991Z" fill="#ED3C95"/>
<path d="M229.364 64.991C229.494 64.991 229.6 64.8861 229.6 64.7567C229.6 64.6273 229.494 64.5225 229.364 64.5225C229.234 64.5225 229.129 64.6273 229.129 64.7567C229.129 64.8861 229.234 64.991 229.364 64.991Z" fill="#ED3C95"/>
<path d="M230.169 64.991C230.299 64.991 230.404 64.8861 230.404 64.7567C230.404 64.6273 230.299 64.5225 230.169 64.5225C230.039 64.5225 229.934 64.6273 229.934 64.7567C229.934 64.8861 230.039 64.991 230.169 64.991Z" fill="#ED3C95"/>
<path d="M230.968 64.991C231.098 64.991 231.203 64.8861 231.203 64.7567C231.203 64.6273 231.098 64.5225 230.968 64.5225C230.838 64.5225 230.732 64.6273 230.732 64.7567C230.732 64.8861 230.838 64.991 230.968 64.991Z" fill="#ED3C95"/>
<path d="M231.769 64.991C231.899 64.991 232.004 64.8861 232.004 64.7567C232.004 64.6273 231.899 64.5225 231.769 64.5225C231.639 64.5225 231.533 64.6273 231.533 64.7567C231.533 64.8861 231.639 64.991 231.769 64.991Z" fill="#ED3C95"/>
<path d="M232.569 64.991C232.699 64.991 232.805 64.8861 232.805 64.7567C232.805 64.6273 232.699 64.5225 232.569 64.5225C232.439 64.5225 232.334 64.6273 232.334 64.7567C232.334 64.8861 232.439 64.991 232.569 64.991Z" fill="#ED3C95"/>
<path d="M233.37 64.991C233.5 64.991 233.606 64.8861 233.606 64.7567C233.606 64.6273 233.5 64.5225 233.37 64.5225C233.24 64.5225 233.135 64.6273 233.135 64.7567C233.135 64.8861 233.24 64.991 233.37 64.991Z" fill="#ED3C95"/>
<path d="M234.171 64.991C234.301 64.991 234.406 64.8861 234.406 64.7567C234.406 64.6273 234.301 64.5225 234.171 64.5225C234.041 64.5225 233.936 64.6273 233.936 64.7567C233.936 64.8861 234.041 64.991 234.171 64.991Z" fill="#ED3C95"/>
<path d="M223.761 65.7449C223.891 65.7449 223.996 65.64 223.996 65.5106C223.996 65.3813 223.891 65.2764 223.761 65.2764C223.631 65.2764 223.525 65.3813 223.525 65.5106C223.525 65.64 223.631 65.7449 223.761 65.7449Z" fill="#ED3C95"/>
<path d="M224.562 65.7449C224.692 65.7449 224.797 65.64 224.797 65.5106C224.797 65.3813 224.692 65.2764 224.562 65.2764C224.432 65.2764 224.326 65.3813 224.326 65.5106C224.326 65.64 224.432 65.7449 224.562 65.7449Z" fill="#ED3C95"/>
<path d="M225.362 65.7449C225.492 65.7449 225.598 65.64 225.598 65.5106C225.598 65.3813 225.492 65.2764 225.362 65.2764C225.232 65.2764 225.127 65.3813 225.127 65.5106C225.127 65.64 225.232 65.7449 225.362 65.7449Z" fill="#ED3C95"/>
<path d="M226.163 65.7449C226.293 65.7449 226.399 65.64 226.399 65.5106C226.399 65.3813 226.293 65.2764 226.163 65.2764C226.033 65.2764 225.928 65.3813 225.928 65.5106C225.928 65.64 226.033 65.7449 226.163 65.7449Z" fill="#ED3C95"/>
<path d="M226.962 65.7449C227.092 65.7449 227.197 65.64 227.197 65.5106C227.197 65.3813 227.092 65.2764 226.962 65.2764C226.832 65.2764 226.727 65.3813 226.727 65.5106C226.727 65.64 226.832 65.7449 226.962 65.7449Z" fill="#ED3C95"/>
<path d="M227.763 65.7449C227.893 65.7449 227.998 65.64 227.998 65.5106C227.998 65.3813 227.893 65.2764 227.763 65.2764C227.633 65.2764 227.527 65.3813 227.527 65.5106C227.527 65.64 227.633 65.7449 227.763 65.7449Z" fill="#ED3C95"/>
<path d="M228.567 65.7449C228.697 65.7449 228.803 65.64 228.803 65.5106C228.803 65.3813 228.697 65.2764 228.567 65.2764C228.437 65.2764 228.332 65.3813 228.332 65.5106C228.332 65.64 228.437 65.7449 228.567 65.7449Z" fill="#ED3C95"/>
<path d="M229.364 65.7449C229.494 65.7449 229.6 65.64 229.6 65.5106C229.6 65.3813 229.494 65.2764 229.364 65.2764C229.234 65.2764 229.129 65.3813 229.129 65.5106C229.129 65.64 229.234 65.7449 229.364 65.7449Z" fill="#ED3C95"/>
<path d="M230.169 65.7449C230.299 65.7449 230.404 65.64 230.404 65.5106C230.404 65.3813 230.299 65.2764 230.169 65.2764C230.039 65.2764 229.934 65.3813 229.934 65.5106C229.934 65.64 230.039 65.7449 230.169 65.7449Z" fill="#ED3C95"/>
<path d="M230.968 65.7449C231.098 65.7449 231.203 65.64 231.203 65.5106C231.203 65.3813 231.098 65.2764 230.968 65.2764C230.838 65.2764 230.732 65.3813 230.732 65.5106C230.732 65.64 230.838 65.7449 230.968 65.7449Z" fill="#ED3C95"/>
<path d="M231.769 65.7449C231.899 65.7449 232.004 65.64 232.004 65.5106C232.004 65.3813 231.899 65.2764 231.769 65.2764C231.639 65.2764 231.533 65.3813 231.533 65.5106C231.533 65.64 231.639 65.7449 231.769 65.7449Z" fill="#ED3C95"/>
<path d="M232.569 65.7449C232.699 65.7449 232.805 65.64 232.805 65.5106C232.805 65.3813 232.699 65.2764 232.569 65.2764C232.439 65.2764 232.334 65.3813 232.334 65.5106C232.334 65.64 232.439 65.7449 232.569 65.7449Z" fill="#ED3C95"/>
<path d="M233.37 65.7449C233.5 65.7449 233.606 65.64 233.606 65.5106C233.606 65.3813 233.5 65.2764 233.37 65.2764C233.24 65.2764 233.135 65.3813 233.135 65.5106C233.135 65.64 233.24 65.7449 233.37 65.7449Z" fill="#ED3C95"/>
<path d="M234.171 65.7449C234.301 65.7449 234.406 65.64 234.406 65.5106C234.406 65.3813 234.301 65.2764 234.171 65.2764C234.041 65.2764 233.936 65.3813 233.936 65.5106C233.936 65.64 234.041 65.7449 234.171 65.7449Z" fill="#ED3C95"/>
<path d="M223.761 66.4939C223.891 66.4939 223.996 66.389 223.996 66.2597C223.996 66.1303 223.891 66.0254 223.761 66.0254C223.631 66.0254 223.525 66.1303 223.525 66.2597C223.525 66.389 223.631 66.4939 223.761 66.4939Z" fill="#ED3C95"/>
<path d="M224.562 66.4939C224.692 66.4939 224.797 66.389 224.797 66.2597C224.797 66.1303 224.692 66.0254 224.562 66.0254C224.432 66.0254 224.326 66.1303 224.326 66.2597C224.326 66.389 224.432 66.4939 224.562 66.4939Z" fill="#ED3C95"/>
<path d="M225.362 66.4939C225.492 66.4939 225.598 66.389 225.598 66.2597C225.598 66.1303 225.492 66.0254 225.362 66.0254C225.232 66.0254 225.127 66.1303 225.127 66.2597C225.127 66.389 225.232 66.4939 225.362 66.4939Z" fill="#ED3C95"/>
<path d="M226.163 66.4939C226.293 66.4939 226.399 66.389 226.399 66.2597C226.399 66.1303 226.293 66.0254 226.163 66.0254C226.033 66.0254 225.928 66.1303 225.928 66.2597C225.928 66.389 226.033 66.4939 226.163 66.4939Z" fill="#ED3C95"/>
<path d="M226.962 66.4939C227.092 66.4939 227.197 66.389 227.197 66.2597C227.197 66.1303 227.092 66.0254 226.962 66.0254C226.832 66.0254 226.727 66.1303 226.727 66.2597C226.727 66.389 226.832 66.4939 226.962 66.4939Z" fill="#ED3C95"/>
<path d="M227.763 66.4939C227.893 66.4939 227.998 66.389 227.998 66.2597C227.998 66.1303 227.893 66.0254 227.763 66.0254C227.633 66.0254 227.527 66.1303 227.527 66.2597C227.527 66.389 227.633 66.4939 227.763 66.4939Z" fill="#ED3C95"/>
<path d="M228.567 66.4939C228.697 66.4939 228.803 66.389 228.803 66.2597C228.803 66.1303 228.697 66.0254 228.567 66.0254C228.437 66.0254 228.332 66.1303 228.332 66.2597C228.332 66.389 228.437 66.4939 228.567 66.4939Z" fill="#ED3C95"/>
<path d="M229.364 66.4939C229.494 66.4939 229.6 66.389 229.6 66.2597C229.6 66.1303 229.494 66.0254 229.364 66.0254C229.234 66.0254 229.129 66.1303 229.129 66.2597C229.129 66.389 229.234 66.4939 229.364 66.4939Z" fill="#ED3C95"/>
<path d="M230.169 66.4939C230.299 66.4939 230.404 66.389 230.404 66.2597C230.404 66.1303 230.299 66.0254 230.169 66.0254C230.039 66.0254 229.934 66.1303 229.934 66.2597C229.934 66.389 230.039 66.4939 230.169 66.4939Z" fill="#ED3C95"/>
<path d="M230.968 66.4939C231.098 66.4939 231.203 66.389 231.203 66.2597C231.203 66.1303 231.098 66.0254 230.968 66.0254C230.838 66.0254 230.732 66.1303 230.732 66.2597C230.732 66.389 230.838 66.4939 230.968 66.4939Z" fill="#ED3C95"/>
<path d="M231.769 66.4939C231.899 66.4939 232.004 66.389 232.004 66.2597C232.004 66.1303 231.899 66.0254 231.769 66.0254C231.639 66.0254 231.533 66.1303 231.533 66.2597C231.533 66.389 231.639 66.4939 231.769 66.4939Z" fill="#ED3C95"/>
<path d="M232.569 66.4939C232.699 66.4939 232.805 66.389 232.805 66.2597C232.805 66.1303 232.699 66.0254 232.569 66.0254C232.439 66.0254 232.334 66.1303 232.334 66.2597C232.334 66.389 232.439 66.4939 232.569 66.4939Z" fill="#ED3C95"/>
<path d="M233.37 66.4939C233.5 66.4939 233.606 66.389 233.606 66.2597C233.606 66.1303 233.5 66.0254 233.37 66.0254C233.24 66.0254 233.135 66.1303 233.135 66.2597C233.135 66.389 233.24 66.4939 233.37 66.4939Z" fill="#ED3C95"/>
<path d="M234.171 66.4939C234.301 66.4939 234.406 66.389 234.406 66.2597C234.406 66.1303 234.301 66.0254 234.171 66.0254C234.041 66.0254 233.936 66.1303 233.936 66.2597C233.936 66.389 234.041 66.4939 234.171 66.4939Z" fill="#ED3C95"/>
<path d="M223.761 67.2439C223.891 67.2439 223.996 67.139 223.996 67.0097C223.996 66.8803 223.891 66.7754 223.761 66.7754C223.631 66.7754 223.525 66.8803 223.525 67.0097C223.525 67.139 223.631 67.2439 223.761 67.2439Z" fill="#ED3C95"/>
<path d="M224.562 67.2439C224.692 67.2439 224.797 67.139 224.797 67.0097C224.797 66.8803 224.692 66.7754 224.562 66.7754C224.432 66.7754 224.326 66.8803 224.326 67.0097C224.326 67.139 224.432 67.2439 224.562 67.2439Z" fill="#ED3C95"/>
<path d="M225.362 67.2439C225.492 67.2439 225.598 67.139 225.598 67.0097C225.598 66.8803 225.492 66.7754 225.362 66.7754C225.232 66.7754 225.127 66.8803 225.127 67.0097C225.127 67.139 225.232 67.2439 225.362 67.2439Z" fill="#ED3C95"/>
<path d="M226.163 67.2439C226.293 67.2439 226.399 67.139 226.399 67.0097C226.399 66.8803 226.293 66.7754 226.163 66.7754C226.033 66.7754 225.928 66.8803 225.928 67.0097C225.928 67.139 226.033 67.2439 226.163 67.2439Z" fill="#ED3C95"/>
<path d="M226.962 67.2439C227.092 67.2439 227.197 67.139 227.197 67.0097C227.197 66.8803 227.092 66.7754 226.962 66.7754C226.832 66.7754 226.727 66.8803 226.727 67.0097C226.727 67.139 226.832 67.2439 226.962 67.2439Z" fill="#ED3C95"/>
<path d="M227.763 67.2439C227.893 67.2439 227.998 67.139 227.998 67.0097C227.998 66.8803 227.893 66.7754 227.763 66.7754C227.633 66.7754 227.527 66.8803 227.527 67.0097C227.527 67.139 227.633 67.2439 227.763 67.2439Z" fill="#ED3C95"/>
<path d="M228.567 67.2439C228.697 67.2439 228.803 67.139 228.803 67.0097C228.803 66.8803 228.697 66.7754 228.567 66.7754C228.437 66.7754 228.332 66.8803 228.332 67.0097C228.332 67.139 228.437 67.2439 228.567 67.2439Z" fill="#ED3C95"/>
<path d="M229.364 67.2439C229.494 67.2439 229.6 67.139 229.6 67.0097C229.6 66.8803 229.494 66.7754 229.364 66.7754C229.234 66.7754 229.129 66.8803 229.129 67.0097C229.129 67.139 229.234 67.2439 229.364 67.2439Z" fill="#ED3C95"/>
<path d="M230.169 67.2439C230.299 67.2439 230.404 67.139 230.404 67.0097C230.404 66.8803 230.299 66.7754 230.169 66.7754C230.039 66.7754 229.934 66.8803 229.934 67.0097C229.934 67.139 230.039 67.2439 230.169 67.2439Z" fill="#ED3C95"/>
<path d="M230.968 67.2439C231.098 67.2439 231.203 67.139 231.203 67.0097C231.203 66.8803 231.098 66.7754 230.968 66.7754C230.838 66.7754 230.732 66.8803 230.732 67.0097C230.732 67.139 230.838 67.2439 230.968 67.2439Z" fill="#ED3C95"/>
<path d="M231.769 67.2439C231.899 67.2439 232.004 67.139 232.004 67.0097C232.004 66.8803 231.899 66.7754 231.769 66.7754C231.639 66.7754 231.533 66.8803 231.533 67.0097C231.533 67.139 231.639 67.2439 231.769 67.2439Z" fill="#ED3C95"/>
<path d="M232.569 67.2439C232.699 67.2439 232.805 67.139 232.805 67.0097C232.805 66.8803 232.699 66.7754 232.569 66.7754C232.439 66.7754 232.334 66.8803 232.334 67.0097C232.334 67.139 232.439 67.2439 232.569 67.2439Z" fill="#ED3C95"/>
<path d="M233.37 67.2439C233.5 67.2439 233.606 67.139 233.606 67.0097C233.606 66.8803 233.5 66.7754 233.37 66.7754C233.24 66.7754 233.135 66.8803 233.135 67.0097C233.135 67.139 233.24 67.2439 233.37 67.2439Z" fill="#ED3C95"/>
<path d="M234.171 67.2439C234.301 67.2439 234.406 67.139 234.406 67.0097C234.406 66.8803 234.301 66.7754 234.171 66.7754C234.041 66.7754 233.936 66.8803 233.936 67.0097C233.936 67.139 234.041 67.2439 234.171 67.2439Z" fill="#ED3C95"/>
<path d="M223.761 67.993C223.891 67.993 223.996 67.8881 223.996 67.7587C223.996 67.6293 223.891 67.5244 223.761 67.5244C223.631 67.5244 223.525 67.6293 223.525 67.7587C223.525 67.8881 223.631 67.993 223.761 67.993Z" fill="#ED3C95"/>
<path d="M224.562 67.993C224.692 67.993 224.797 67.8881 224.797 67.7587C224.797 67.6293 224.692 67.5244 224.562 67.5244C224.432 67.5244 224.326 67.6293 224.326 67.7587C224.326 67.8881 224.432 67.993 224.562 67.993Z" fill="#ED3C95"/>
<path d="M225.362 67.993C225.492 67.993 225.598 67.8881 225.598 67.7587C225.598 67.6293 225.492 67.5244 225.362 67.5244C225.232 67.5244 225.127 67.6293 225.127 67.7587C225.127 67.8881 225.232 67.993 225.362 67.993Z" fill="#ED3C95"/>
<path d="M226.163 67.993C226.293 67.993 226.399 67.8881 226.399 67.7587C226.399 67.6293 226.293 67.5244 226.163 67.5244C226.033 67.5244 225.928 67.6293 225.928 67.7587C225.928 67.8881 226.033 67.993 226.163 67.993Z" fill="#ED3C95"/>
<path d="M226.962 67.993C227.092 67.993 227.197 67.8881 227.197 67.7587C227.197 67.6293 227.092 67.5244 226.962 67.5244C226.832 67.5244 226.727 67.6293 226.727 67.7587C226.727 67.8881 226.832 67.993 226.962 67.993Z" fill="#ED3C95"/>
<path d="M227.763 67.993C227.893 67.993 227.998 67.8881 227.998 67.7587C227.998 67.6293 227.893 67.5244 227.763 67.5244C227.633 67.5244 227.527 67.6293 227.527 67.7587C227.527 67.8881 227.633 67.993 227.763 67.993Z" fill="#ED3C95"/>
<path d="M228.567 67.993C228.697 67.993 228.803 67.8881 228.803 67.7587C228.803 67.6293 228.697 67.5244 228.567 67.5244C228.437 67.5244 228.332 67.6293 228.332 67.7587C228.332 67.8881 228.437 67.993 228.567 67.993Z" fill="#ED3C95"/>
<path d="M229.364 67.993C229.494 67.993 229.6 67.8881 229.6 67.7587C229.6 67.6293 229.494 67.5244 229.364 67.5244C229.234 67.5244 229.129 67.6293 229.129 67.7587C229.129 67.8881 229.234 67.993 229.364 67.993Z" fill="#ED3C95"/>
<path d="M230.169 67.993C230.299 67.993 230.404 67.8881 230.404 67.7587C230.404 67.6293 230.299 67.5244 230.169 67.5244C230.039 67.5244 229.934 67.6293 229.934 67.7587C229.934 67.8881 230.039 67.993 230.169 67.993Z" fill="#ED3C95"/>
<path d="M230.968 67.993C231.098 67.993 231.203 67.8881 231.203 67.7587C231.203 67.6293 231.098 67.5244 230.968 67.5244C230.838 67.5244 230.732 67.6293 230.732 67.7587C230.732 67.8881 230.838 67.993 230.968 67.993Z" fill="#ED3C95"/>
<path d="M231.769 67.993C231.899 67.993 232.004 67.8881 232.004 67.7587C232.004 67.6293 231.899 67.5244 231.769 67.5244C231.639 67.5244 231.533 67.6293 231.533 67.7587C231.533 67.8881 231.639 67.993 231.769 67.993Z" fill="#ED3C95"/>
<path d="M232.569 67.993C232.699 67.993 232.805 67.8881 232.805 67.7587C232.805 67.6293 232.699 67.5244 232.569 67.5244C232.439 67.5244 232.334 67.6293 232.334 67.7587C232.334 67.8881 232.439 67.993 232.569 67.993Z" fill="#ED3C95"/>
<path d="M233.37 67.993C233.5 67.993 233.606 67.8881 233.606 67.7587C233.606 67.6293 233.5 67.5244 233.37 67.5244C233.24 67.5244 233.135 67.6293 233.135 67.7587C233.135 67.8881 233.24 67.993 233.37 67.993Z" fill="#ED3C95"/>
<path d="M234.171 67.993C234.301 67.993 234.406 67.8881 234.406 67.7587C234.406 67.6293 234.301 67.5244 234.171 67.5244C234.041 67.5244 233.936 67.6293 233.936 67.7587C233.936 67.8881 234.041 67.993 234.171 67.993Z" fill="#ED3C95"/>
<path d="M223.761 68.743C223.891 68.743 223.996 68.6381 223.996 68.5087C223.996 68.3793 223.891 68.2744 223.761 68.2744C223.631 68.2744 223.525 68.3793 223.525 68.5087C223.525 68.6381 223.631 68.743 223.761 68.743Z" fill="#ED3C95"/>
<path d="M224.562 68.743C224.692 68.743 224.797 68.6381 224.797 68.5087C224.797 68.3793 224.692 68.2744 224.562 68.2744C224.432 68.2744 224.326 68.3793 224.326 68.5087C224.326 68.6381 224.432 68.743 224.562 68.743Z" fill="#ED3C95"/>
<path d="M225.362 68.743C225.492 68.743 225.598 68.6381 225.598 68.5087C225.598 68.3793 225.492 68.2744 225.362 68.2744C225.232 68.2744 225.127 68.3793 225.127 68.5087C225.127 68.6381 225.232 68.743 225.362 68.743Z" fill="#ED3C95"/>
<path d="M226.163 68.743C226.293 68.743 226.399 68.6381 226.399 68.5087C226.399 68.3793 226.293 68.2744 226.163 68.2744C226.033 68.2744 225.928 68.3793 225.928 68.5087C225.928 68.6381 226.033 68.743 226.163 68.743Z" fill="#ED3C95"/>
<path d="M226.962 68.743C227.092 68.743 227.197 68.6381 227.197 68.5087C227.197 68.3793 227.092 68.2744 226.962 68.2744C226.832 68.2744 226.727 68.3793 226.727 68.5087C226.727 68.6381 226.832 68.743 226.962 68.743Z" fill="#ED3C95"/>
<path d="M227.763 68.743C227.893 68.743 227.998 68.6381 227.998 68.5087C227.998 68.3793 227.893 68.2744 227.763 68.2744C227.633 68.2744 227.527 68.3793 227.527 68.5087C227.527 68.6381 227.633 68.743 227.763 68.743Z" fill="#ED3C95"/>
<path d="M228.567 68.743C228.697 68.743 228.803 68.6381 228.803 68.5087C228.803 68.3793 228.697 68.2744 228.567 68.2744C228.437 68.2744 228.332 68.3793 228.332 68.5087C228.332 68.6381 228.437 68.743 228.567 68.743Z" fill="#ED3C95"/>
<path d="M229.364 68.743C229.494 68.743 229.6 68.6381 229.6 68.5087C229.6 68.3793 229.494 68.2744 229.364 68.2744C229.234 68.2744 229.129 68.3793 229.129 68.5087C229.129 68.6381 229.234 68.743 229.364 68.743Z" fill="#ED3C95"/>
<path d="M230.169 68.743C230.299 68.743 230.404 68.6381 230.404 68.5087C230.404 68.3793 230.299 68.2744 230.169 68.2744C230.039 68.2744 229.934 68.3793 229.934 68.5087C229.934 68.6381 230.039 68.743 230.169 68.743Z" fill="#ED3C95"/>
<path d="M230.968 68.743C231.098 68.743 231.203 68.6381 231.203 68.5087C231.203 68.3793 231.098 68.2744 230.968 68.2744C230.838 68.2744 230.732 68.3793 230.732 68.5087C230.732 68.6381 230.838 68.743 230.968 68.743Z" fill="#ED3C95"/>
<path d="M231.769 68.743C231.899 68.743 232.004 68.6381 232.004 68.5087C232.004 68.3793 231.899 68.2744 231.769 68.2744C231.639 68.2744 231.533 68.3793 231.533 68.5087C231.533 68.6381 231.639 68.743 231.769 68.743Z" fill="#ED3C95"/>
<path d="M232.569 68.743C232.699 68.743 232.805 68.6381 232.805 68.5087C232.805 68.3793 232.699 68.2744 232.569 68.2744C232.439 68.2744 232.334 68.3793 232.334 68.5087C232.334 68.6381 232.439 68.743 232.569 68.743Z" fill="#ED3C95"/>
<path d="M233.37 68.743C233.5 68.743 233.606 68.6381 233.606 68.5087C233.606 68.3793 233.5 68.2744 233.37 68.2744C233.24 68.2744 233.135 68.3793 233.135 68.5087C233.135 68.6381 233.24 68.743 233.37 68.743Z" fill="#ED3C95"/>
<path d="M234.171 68.743C234.301 68.743 234.406 68.6381 234.406 68.5087C234.406 68.3793 234.301 68.2744 234.171 68.2744C234.041 68.2744 233.936 68.3793 233.936 68.5087C233.936 68.6381 234.041 68.743 234.171 68.743Z" fill="#ED3C95"/>
<path d="M223.761 69.4939C223.891 69.4939 223.996 69.389 223.996 69.2597C223.996 69.1303 223.891 69.0254 223.761 69.0254C223.631 69.0254 223.525 69.1303 223.525 69.2597C223.525 69.389 223.631 69.4939 223.761 69.4939Z" fill="#ED3C95"/>
<path d="M224.562 69.4939C224.692 69.4939 224.797 69.389 224.797 69.2597C224.797 69.1303 224.692 69.0254 224.562 69.0254C224.432 69.0254 224.326 69.1303 224.326 69.2597C224.326 69.389 224.432 69.4939 224.562 69.4939Z" fill="#ED3C95"/>
<path d="M225.362 69.4939C225.492 69.4939 225.598 69.389 225.598 69.2597C225.598 69.1303 225.492 69.0254 225.362 69.0254C225.232 69.0254 225.127 69.1303 225.127 69.2597C225.127 69.389 225.232 69.4939 225.362 69.4939Z" fill="#ED3C95"/>
<path d="M226.163 69.4939C226.293 69.4939 226.399 69.389 226.399 69.2597C226.399 69.1303 226.293 69.0254 226.163 69.0254C226.033 69.0254 225.928 69.1303 225.928 69.2597C225.928 69.389 226.033 69.4939 226.163 69.4939Z" fill="#ED3C95"/>
<path d="M226.962 69.4939C227.092 69.4939 227.197 69.389 227.197 69.2597C227.197 69.1303 227.092 69.0254 226.962 69.0254C226.832 69.0254 226.727 69.1303 226.727 69.2597C226.727 69.389 226.832 69.4939 226.962 69.4939Z" fill="#ED3C95"/>
<path d="M227.763 69.4939C227.893 69.4939 227.998 69.389 227.998 69.2597C227.998 69.1303 227.893 69.0254 227.763 69.0254C227.633 69.0254 227.527 69.1303 227.527 69.2597C227.527 69.389 227.633 69.4939 227.763 69.4939Z" fill="#ED3C95"/>
<path d="M228.567 69.4939C228.697 69.4939 228.803 69.389 228.803 69.2597C228.803 69.1303 228.697 69.0254 228.567 69.0254C228.437 69.0254 228.332 69.1303 228.332 69.2597C228.332 69.389 228.437 69.4939 228.567 69.4939Z" fill="#ED3C95"/>
<path d="M229.364 69.4939C229.494 69.4939 229.6 69.389 229.6 69.2597C229.6 69.1303 229.494 69.0254 229.364 69.0254C229.234 69.0254 229.129 69.1303 229.129 69.2597C229.129 69.389 229.234 69.4939 229.364 69.4939Z" fill="#ED3C95"/>
<path d="M230.169 69.4939C230.299 69.4939 230.404 69.389 230.404 69.2597C230.404 69.1303 230.299 69.0254 230.169 69.0254C230.039 69.0254 229.934 69.1303 229.934 69.2597C229.934 69.389 230.039 69.4939 230.169 69.4939Z" fill="#ED3C95"/>
<path d="M230.968 69.4939C231.098 69.4939 231.203 69.389 231.203 69.2597C231.203 69.1303 231.098 69.0254 230.968 69.0254C230.838 69.0254 230.732 69.1303 230.732 69.2597C230.732 69.389 230.838 69.4939 230.968 69.4939Z" fill="#ED3C95"/>
<path d="M231.769 69.4939C231.899 69.4939 232.004 69.389 232.004 69.2597C232.004 69.1303 231.899 69.0254 231.769 69.0254C231.639 69.0254 231.533 69.1303 231.533 69.2597C231.533 69.389 231.639 69.4939 231.769 69.4939Z" fill="#ED3C95"/>
<path d="M232.569 69.4939C232.699 69.4939 232.805 69.389 232.805 69.2597C232.805 69.1303 232.699 69.0254 232.569 69.0254C232.439 69.0254 232.334 69.1303 232.334 69.2597C232.334 69.389 232.439 69.4939 232.569 69.4939Z" fill="#ED3C95"/>
<path d="M233.37 69.4939C233.5 69.4939 233.606 69.389 233.606 69.2597C233.606 69.1303 233.5 69.0254 233.37 69.0254C233.24 69.0254 233.135 69.1303 233.135 69.2597C233.135 69.389 233.24 69.4939 233.37 69.4939Z" fill="#ED3C95"/>
<path d="M234.171 69.4939C234.301 69.4939 234.406 69.389 234.406 69.2597C234.406 69.1303 234.301 69.0254 234.171 69.0254C234.041 69.0254 233.936 69.1303 233.936 69.2597C233.936 69.389 234.041 69.4939 234.171 69.4939Z" fill="#ED3C95"/>
<path d="M223.761 70.243C223.891 70.243 223.996 70.1381 223.996 70.0087C223.996 69.8793 223.891 69.7744 223.761 69.7744C223.631 69.7744 223.525 69.8793 223.525 70.0087C223.525 70.1381 223.631 70.243 223.761 70.243Z" fill="#ED3C95"/>
<path d="M224.562 70.243C224.692 70.243 224.797 70.1381 224.797 70.0087C224.797 69.8793 224.692 69.7744 224.562 69.7744C224.432 69.7744 224.326 69.8793 224.326 70.0087C224.326 70.1381 224.432 70.243 224.562 70.243Z" fill="#ED3C95"/>
<path d="M225.362 70.243C225.492 70.243 225.598 70.1381 225.598 70.0087C225.598 69.8793 225.492 69.7744 225.362 69.7744C225.232 69.7744 225.127 69.8793 225.127 70.0087C225.127 70.1381 225.232 70.243 225.362 70.243Z" fill="#ED3C95"/>
<path d="M226.163 70.243C226.293 70.243 226.399 70.1381 226.399 70.0087C226.399 69.8793 226.293 69.7744 226.163 69.7744C226.033 69.7744 225.928 69.8793 225.928 70.0087C225.928 70.1381 226.033 70.243 226.163 70.243Z" fill="#ED3C95"/>
<path d="M226.962 70.243C227.092 70.243 227.197 70.1381 227.197 70.0087C227.197 69.8793 227.092 69.7744 226.962 69.7744C226.832 69.7744 226.727 69.8793 226.727 70.0087C226.727 70.1381 226.832 70.243 226.962 70.243Z" fill="#ED3C95"/>
<path d="M227.763 70.243C227.893 70.243 227.998 70.1381 227.998 70.0087C227.998 69.8793 227.893 69.7744 227.763 69.7744C227.633 69.7744 227.527 69.8793 227.527 70.0087C227.527 70.1381 227.633 70.243 227.763 70.243Z" fill="#ED3C95"/>
<path d="M228.567 70.243C228.697 70.243 228.803 70.1381 228.803 70.0087C228.803 69.8793 228.697 69.7744 228.567 69.7744C228.437 69.7744 228.332 69.8793 228.332 70.0087C228.332 70.1381 228.437 70.243 228.567 70.243Z" fill="#ED3C95"/>
<path d="M229.364 70.243C229.494 70.243 229.6 70.1381 229.6 70.0087C229.6 69.8793 229.494 69.7744 229.364 69.7744C229.234 69.7744 229.129 69.8793 229.129 70.0087C229.129 70.1381 229.234 70.243 229.364 70.243Z" fill="#ED3C95"/>
<path d="M230.169 70.243C230.299 70.243 230.404 70.1381 230.404 70.0087C230.404 69.8793 230.299 69.7744 230.169 69.7744C230.039 69.7744 229.934 69.8793 229.934 70.0087C229.934 70.1381 230.039 70.243 230.169 70.243Z" fill="#ED3C95"/>
<path d="M230.968 70.243C231.098 70.243 231.203 70.1381 231.203 70.0087C231.203 69.8793 231.098 69.7744 230.968 69.7744C230.838 69.7744 230.732 69.8793 230.732 70.0087C230.732 70.1381 230.838 70.243 230.968 70.243Z" fill="#ED3C95"/>
<path d="M231.769 70.243C231.899 70.243 232.004 70.1381 232.004 70.0087C232.004 69.8793 231.899 69.7744 231.769 69.7744C231.639 69.7744 231.533 69.8793 231.533 70.0087C231.533 70.1381 231.639 70.243 231.769 70.243Z" fill="#ED3C95"/>
<path d="M232.569 70.243C232.699 70.243 232.805 70.1381 232.805 70.0087C232.805 69.8793 232.699 69.7744 232.569 69.7744C232.439 69.7744 232.334 69.8793 232.334 70.0087C232.334 70.1381 232.439 70.243 232.569 70.243Z" fill="#ED3C95"/>
<path d="M233.37 70.243C233.5 70.243 233.606 70.1381 233.606 70.0087C233.606 69.8793 233.5 69.7744 233.37 69.7744C233.24 69.7744 233.135 69.8793 233.135 70.0087C233.135 70.1381 233.24 70.243 233.37 70.243Z" fill="#ED3C95"/>
<path d="M234.171 70.243C234.301 70.243 234.406 70.1381 234.406 70.0087C234.406 69.8793 234.301 69.7744 234.171 69.7744C234.041 69.7744 233.936 69.8793 233.936 70.0087C233.936 70.1381 234.041 70.243 234.171 70.243Z" fill="#ED3C95"/>
<path d="M223.761 70.992C223.891 70.992 223.996 70.8871 223.996 70.7577C223.996 70.6283 223.891 70.5234 223.761 70.5234C223.631 70.5234 223.525 70.6283 223.525 70.7577C223.525 70.8871 223.631 70.992 223.761 70.992Z" fill="#ED3C95"/>
<path d="M224.562 70.992C224.692 70.992 224.797 70.8871 224.797 70.7577C224.797 70.6283 224.692 70.5234 224.562 70.5234C224.432 70.5234 224.326 70.6283 224.326 70.7577C224.326 70.8871 224.432 70.992 224.562 70.992Z" fill="#ED3C95"/>
<path d="M225.362 70.992C225.492 70.992 225.598 70.8871 225.598 70.7577C225.598 70.6283 225.492 70.5234 225.362 70.5234C225.232 70.5234 225.127 70.6283 225.127 70.7577C225.127 70.8871 225.232 70.992 225.362 70.992Z" fill="#ED3C95"/>
<path d="M226.163 70.992C226.293 70.992 226.399 70.8871 226.399 70.7577C226.399 70.6283 226.293 70.5234 226.163 70.5234C226.033 70.5234 225.928 70.6283 225.928 70.7577C225.928 70.8871 226.033 70.992 226.163 70.992Z" fill="#ED3C95"/>
<path d="M226.962 70.992C227.092 70.992 227.197 70.8871 227.197 70.7577C227.197 70.6283 227.092 70.5234 226.962 70.5234C226.832 70.5234 226.727 70.6283 226.727 70.7577C226.727 70.8871 226.832 70.992 226.962 70.992Z" fill="#ED3C95"/>
<path d="M227.763 70.992C227.893 70.992 227.998 70.8871 227.998 70.7577C227.998 70.6283 227.893 70.5234 227.763 70.5234C227.633 70.5234 227.527 70.6283 227.527 70.7577C227.527 70.8871 227.633 70.992 227.763 70.992Z" fill="#ED3C95"/>
<path d="M228.567 70.992C228.697 70.992 228.803 70.8871 228.803 70.7577C228.803 70.6283 228.697 70.5234 228.567 70.5234C228.437 70.5234 228.332 70.6283 228.332 70.7577C228.332 70.8871 228.437 70.992 228.567 70.992Z" fill="#ED3C95"/>
<path d="M229.364 70.992C229.494 70.992 229.6 70.8871 229.6 70.7577C229.6 70.6283 229.494 70.5234 229.364 70.5234C229.234 70.5234 229.129 70.6283 229.129 70.7577C229.129 70.8871 229.234 70.992 229.364 70.992Z" fill="#ED3C95"/>
<path d="M230.169 70.992C230.299 70.992 230.404 70.8871 230.404 70.7577C230.404 70.6283 230.299 70.5234 230.169 70.5234C230.039 70.5234 229.934 70.6283 229.934 70.7577C229.934 70.8871 230.039 70.992 230.169 70.992Z" fill="#ED3C95"/>
<path d="M230.968 70.992C231.098 70.992 231.203 70.8871 231.203 70.7577C231.203 70.6283 231.098 70.5234 230.968 70.5234C230.838 70.5234 230.732 70.6283 230.732 70.7577C230.732 70.8871 230.838 70.992 230.968 70.992Z" fill="#ED3C95"/>
<path d="M231.769 70.992C231.899 70.992 232.004 70.8871 232.004 70.7577C232.004 70.6283 231.899 70.5234 231.769 70.5234C231.639 70.5234 231.533 70.6283 231.533 70.7577C231.533 70.8871 231.639 70.992 231.769 70.992Z" fill="#ED3C95"/>
<path d="M232.569 70.992C232.699 70.992 232.805 70.8871 232.805 70.7577C232.805 70.6283 232.699 70.5234 232.569 70.5234C232.439 70.5234 232.334 70.6283 232.334 70.7577C232.334 70.8871 232.439 70.992 232.569 70.992Z" fill="#ED3C95"/>
<path d="M233.37 70.992C233.5 70.992 233.606 70.8871 233.606 70.7577C233.606 70.6283 233.5 70.5234 233.37 70.5234C233.24 70.5234 233.135 70.6283 233.135 70.7577C233.135 70.8871 233.24 70.992 233.37 70.992Z" fill="#ED3C95"/>
<path d="M234.171 70.992C234.301 70.992 234.406 70.8871 234.406 70.7577C234.406 70.6283 234.301 70.5234 234.171 70.5234C234.041 70.5234 233.936 70.6283 233.936 70.7577C233.936 70.8871 234.041 70.992 234.171 70.992Z" fill="#ED3C95"/>
<path d="M223.761 71.742C223.891 71.742 223.996 71.6371 223.996 71.5077C223.996 71.3783 223.891 71.2734 223.761 71.2734C223.631 71.2734 223.525 71.3783 223.525 71.5077C223.525 71.6371 223.631 71.742 223.761 71.742Z" fill="#ED3C95"/>
<path d="M224.562 71.742C224.692 71.742 224.797 71.6371 224.797 71.5077C224.797 71.3783 224.692 71.2734 224.562 71.2734C224.432 71.2734 224.326 71.3783 224.326 71.5077C224.326 71.6371 224.432 71.742 224.562 71.742Z" fill="#ED3C95"/>
<path d="M225.362 71.742C225.492 71.742 225.598 71.6371 225.598 71.5077C225.598 71.3783 225.492 71.2734 225.362 71.2734C225.232 71.2734 225.127 71.3783 225.127 71.5077C225.127 71.6371 225.232 71.742 225.362 71.742Z" fill="#ED3C95"/>
<path d="M226.163 71.742C226.293 71.742 226.399 71.6371 226.399 71.5077C226.399 71.3783 226.293 71.2734 226.163 71.2734C226.033 71.2734 225.928 71.3783 225.928 71.5077C225.928 71.6371 226.033 71.742 226.163 71.742Z" fill="#ED3C95"/>
<path d="M226.962 71.742C227.092 71.742 227.197 71.6371 227.197 71.5077C227.197 71.3783 227.092 71.2734 226.962 71.2734C226.832 71.2734 226.727 71.3783 226.727 71.5077C226.727 71.6371 226.832 71.742 226.962 71.742Z" fill="#ED3C95"/>
<path d="M227.763 71.742C227.893 71.742 227.998 71.6371 227.998 71.5077C227.998 71.3783 227.893 71.2734 227.763 71.2734C227.633 71.2734 227.527 71.3783 227.527 71.5077C227.527 71.6371 227.633 71.742 227.763 71.742Z" fill="#ED3C95"/>
<path d="M228.567 71.742C228.697 71.742 228.803 71.6371 228.803 71.5077C228.803 71.3783 228.697 71.2734 228.567 71.2734C228.437 71.2734 228.332 71.3783 228.332 71.5077C228.332 71.6371 228.437 71.742 228.567 71.742Z" fill="#ED3C95"/>
<path d="M229.364 71.742C229.494 71.742 229.6 71.6371 229.6 71.5077C229.6 71.3783 229.494 71.2734 229.364 71.2734C229.234 71.2734 229.129 71.3783 229.129 71.5077C229.129 71.6371 229.234 71.742 229.364 71.742Z" fill="#ED3C95"/>
<path d="M230.169 71.742C230.299 71.742 230.404 71.6371 230.404 71.5077C230.404 71.3783 230.299 71.2734 230.169 71.2734C230.039 71.2734 229.934 71.3783 229.934 71.5077C229.934 71.6371 230.039 71.742 230.169 71.742Z" fill="#ED3C95"/>
<path d="M230.968 71.742C231.098 71.742 231.203 71.6371 231.203 71.5077C231.203 71.3783 231.098 71.2734 230.968 71.2734C230.838 71.2734 230.732 71.3783 230.732 71.5077C230.732 71.6371 230.838 71.742 230.968 71.742Z" fill="#ED3C95"/>
<path d="M231.769 71.742C231.899 71.742 232.004 71.6371 232.004 71.5077C232.004 71.3783 231.899 71.2734 231.769 71.2734C231.639 71.2734 231.533 71.3783 231.533 71.5077C231.533 71.6371 231.639 71.742 231.769 71.742Z" fill="#ED3C95"/>
<path d="M232.569 71.742C232.699 71.742 232.805 71.6371 232.805 71.5077C232.805 71.3783 232.699 71.2734 232.569 71.2734C232.439 71.2734 232.334 71.3783 232.334 71.5077C232.334 71.6371 232.439 71.742 232.569 71.742Z" fill="#ED3C95"/>
<path d="M233.37 71.742C233.5 71.742 233.606 71.6371 233.606 71.5077C233.606 71.3783 233.5 71.2734 233.37 71.2734C233.24 71.2734 233.135 71.3783 233.135 71.5077C233.135 71.6371 233.24 71.742 233.37 71.742Z" fill="#ED3C95"/>
<path d="M234.171 71.742C234.301 71.742 234.406 71.6371 234.406 71.5077C234.406 71.3783 234.301 71.2734 234.171 71.2734C234.041 71.2734 233.936 71.3783 233.936 71.5077C233.936 71.6371 234.041 71.742 234.171 71.742Z" fill="#ED3C95"/>
<path d="M223.761 72.4959C223.891 72.4959 223.996 72.391 223.996 72.2616C223.996 72.1322 223.891 72.0273 223.761 72.0273C223.631 72.0273 223.525 72.1322 223.525 72.2616C223.525 72.391 223.631 72.4959 223.761 72.4959Z" fill="#ED3C95"/>
<path d="M224.562 72.4959C224.692 72.4959 224.797 72.391 224.797 72.2616C224.797 72.1322 224.692 72.0273 224.562 72.0273C224.432 72.0273 224.326 72.1322 224.326 72.2616C224.326 72.391 224.432 72.4959 224.562 72.4959Z" fill="#ED3C95"/>
<path d="M225.362 72.4959C225.492 72.4959 225.598 72.391 225.598 72.2616C225.598 72.1322 225.492 72.0273 225.362 72.0273C225.232 72.0273 225.127 72.1322 225.127 72.2616C225.127 72.391 225.232 72.4959 225.362 72.4959Z" fill="#ED3C95"/>
<path d="M226.163 72.4959C226.293 72.4959 226.399 72.391 226.399 72.2616C226.399 72.1322 226.293 72.0273 226.163 72.0273C226.033 72.0273 225.928 72.1322 225.928 72.2616C225.928 72.391 226.033 72.4959 226.163 72.4959Z" fill="#ED3C95"/>
<path d="M226.962 72.4959C227.092 72.4959 227.197 72.391 227.197 72.2616C227.197 72.1322 227.092 72.0273 226.962 72.0273C226.832 72.0273 226.727 72.1322 226.727 72.2616C226.727 72.391 226.832 72.4959 226.962 72.4959Z" fill="#ED3C95"/>
<path d="M227.763 72.4959C227.893 72.4959 227.998 72.391 227.998 72.2616C227.998 72.1322 227.893 72.0273 227.763 72.0273C227.633 72.0273 227.527 72.1322 227.527 72.2616C227.527 72.391 227.633 72.4959 227.763 72.4959Z" fill="#ED3C95"/>
<path d="M228.567 72.4959C228.697 72.4959 228.803 72.391 228.803 72.2616C228.803 72.1322 228.697 72.0273 228.567 72.0273C228.437 72.0273 228.332 72.1322 228.332 72.2616C228.332 72.391 228.437 72.4959 228.567 72.4959Z" fill="#ED3C95"/>
<path d="M229.364 72.4959C229.494 72.4959 229.6 72.391 229.6 72.2616C229.6 72.1322 229.494 72.0273 229.364 72.0273C229.234 72.0273 229.129 72.1322 229.129 72.2616C229.129 72.391 229.234 72.4959 229.364 72.4959Z" fill="#ED3C95"/>
<path d="M230.169 72.4959C230.299 72.4959 230.404 72.391 230.404 72.2616C230.404 72.1322 230.299 72.0273 230.169 72.0273C230.039 72.0273 229.934 72.1322 229.934 72.2616C229.934 72.391 230.039 72.4959 230.169 72.4959Z" fill="#ED3C95"/>
<path d="M230.968 72.4959C231.098 72.4959 231.203 72.391 231.203 72.2616C231.203 72.1322 231.098 72.0273 230.968 72.0273C230.838 72.0273 230.732 72.1322 230.732 72.2616C230.732 72.391 230.838 72.4959 230.968 72.4959Z" fill="#ED3C95"/>
<path d="M231.769 72.4959C231.899 72.4959 232.004 72.391 232.004 72.2616C232.004 72.1322 231.899 72.0273 231.769 72.0273C231.639 72.0273 231.533 72.1322 231.533 72.2616C231.533 72.391 231.639 72.4959 231.769 72.4959Z" fill="#ED3C95"/>
<path d="M232.569 72.4959C232.699 72.4959 232.805 72.391 232.805 72.2616C232.805 72.1322 232.699 72.0273 232.569 72.0273C232.439 72.0273 232.334 72.1322 232.334 72.2616C232.334 72.391 232.439 72.4959 232.569 72.4959Z" fill="#ED3C95"/>
<path d="M233.37 72.4959C233.5 72.4959 233.606 72.391 233.606 72.2616C233.606 72.1322 233.5 72.0273 233.37 72.0273C233.24 72.0273 233.135 72.1322 233.135 72.2616C233.135 72.391 233.24 72.4959 233.37 72.4959Z" fill="#ED3C95"/>
<path d="M234.171 72.4959C234.301 72.4959 234.406 72.391 234.406 72.2616C234.406 72.1322 234.301 72.0273 234.171 72.0273C234.041 72.0273 233.936 72.1322 233.936 72.2616C233.936 72.391 234.041 72.4959 234.171 72.4959Z" fill="#ED3C95"/>
<path d="M223.761 73.241C223.891 73.241 223.996 73.1361 223.996 73.0067C223.996 72.8773 223.891 72.7725 223.761 72.7725C223.631 72.7725 223.525 72.8773 223.525 73.0067C223.525 73.1361 223.631 73.241 223.761 73.241Z" fill="#ED3C95"/>
<path d="M224.562 73.241C224.692 73.241 224.797 73.1361 224.797 73.0067C224.797 72.8773 224.692 72.7725 224.562 72.7725C224.432 72.7725 224.326 72.8773 224.326 73.0067C224.326 73.1361 224.432 73.241 224.562 73.241Z" fill="#ED3C95"/>
<path d="M225.362 73.241C225.492 73.241 225.598 73.1361 225.598 73.0067C225.598 72.8773 225.492 72.7725 225.362 72.7725C225.232 72.7725 225.127 72.8773 225.127 73.0067C225.127 73.1361 225.232 73.241 225.362 73.241Z" fill="#ED3C95"/>
<path d="M226.163 73.241C226.293 73.241 226.399 73.1361 226.399 73.0067C226.399 72.8773 226.293 72.7725 226.163 72.7725C226.033 72.7725 225.928 72.8773 225.928 73.0067C225.928 73.1361 226.033 73.241 226.163 73.241Z" fill="#ED3C95"/>
<path d="M226.962 73.241C227.092 73.241 227.197 73.1361 227.197 73.0067C227.197 72.8773 227.092 72.7725 226.962 72.7725C226.832 72.7725 226.727 72.8773 226.727 73.0067C226.727 73.1361 226.832 73.241 226.962 73.241Z" fill="#ED3C95"/>
<path d="M227.763 73.241C227.893 73.241 227.998 73.1361 227.998 73.0067C227.998 72.8773 227.893 72.7725 227.763 72.7725C227.633 72.7725 227.527 72.8773 227.527 73.0067C227.527 73.1361 227.633 73.241 227.763 73.241Z" fill="#ED3C95"/>
<path d="M228.567 73.241C228.697 73.241 228.803 73.1361 228.803 73.0067C228.803 72.8773 228.697 72.7725 228.567 72.7725C228.437 72.7725 228.332 72.8773 228.332 73.0067C228.332 73.1361 228.437 73.241 228.567 73.241Z" fill="#ED3C95"/>
<path d="M229.364 73.241C229.494 73.241 229.6 73.1361 229.6 73.0067C229.6 72.8773 229.494 72.7725 229.364 72.7725C229.234 72.7725 229.129 72.8773 229.129 73.0067C229.129 73.1361 229.234 73.241 229.364 73.241Z" fill="#ED3C95"/>
<path d="M230.169 73.241C230.299 73.241 230.404 73.1361 230.404 73.0067C230.404 72.8773 230.299 72.7725 230.169 72.7725C230.039 72.7725 229.934 72.8773 229.934 73.0067C229.934 73.1361 230.039 73.241 230.169 73.241Z" fill="#ED3C95"/>
<path d="M230.968 73.241C231.098 73.241 231.203 73.1361 231.203 73.0067C231.203 72.8773 231.098 72.7725 230.968 72.7725C230.838 72.7725 230.732 72.8773 230.732 73.0067C230.732 73.1361 230.838 73.241 230.968 73.241Z" fill="#ED3C95"/>
<path d="M231.769 73.241C231.899 73.241 232.004 73.1361 232.004 73.0067C232.004 72.8773 231.899 72.7725 231.769 72.7725C231.639 72.7725 231.533 72.8773 231.533 73.0067C231.533 73.1361 231.639 73.241 231.769 73.241Z" fill="#ED3C95"/>
<path d="M232.569 73.241C232.699 73.241 232.805 73.1361 232.805 73.0067C232.805 72.8773 232.699 72.7725 232.569 72.7725C232.439 72.7725 232.334 72.8773 232.334 73.0067C232.334 73.1361 232.439 73.241 232.569 73.241Z" fill="#ED3C95"/>
<path d="M233.37 73.241C233.5 73.241 233.606 73.1361 233.606 73.0067C233.606 72.8773 233.5 72.7725 233.37 72.7725C233.24 72.7725 233.135 72.8773 233.135 73.0067C233.135 73.1361 233.24 73.241 233.37 73.241Z" fill="#ED3C95"/>
<path d="M234.171 73.241C234.301 73.241 234.406 73.1361 234.406 73.0067C234.406 72.8773 234.301 72.7725 234.171 72.7725C234.041 72.7725 233.936 72.8773 233.936 73.0067C233.936 73.1361 234.041 73.241 234.171 73.241Z" fill="#ED3C95"/>
<path d="M223.761 73.9939C223.891 73.9939 223.996 73.889 223.996 73.7597C223.996 73.6303 223.891 73.5254 223.761 73.5254C223.631 73.5254 223.525 73.6303 223.525 73.7597C223.525 73.889 223.631 73.9939 223.761 73.9939Z" fill="#ED3C95"/>
<path d="M224.562 73.9939C224.692 73.9939 224.797 73.889 224.797 73.7597C224.797 73.6303 224.692 73.5254 224.562 73.5254C224.432 73.5254 224.326 73.6303 224.326 73.7597C224.326 73.889 224.432 73.9939 224.562 73.9939Z" fill="#ED3C95"/>
<path d="M225.362 73.9939C225.492 73.9939 225.598 73.889 225.598 73.7597C225.598 73.6303 225.492 73.5254 225.362 73.5254C225.232 73.5254 225.127 73.6303 225.127 73.7597C225.127 73.889 225.232 73.9939 225.362 73.9939Z" fill="#ED3C95"/>
<path d="M226.163 73.9939C226.293 73.9939 226.399 73.889 226.399 73.7597C226.399 73.6303 226.293 73.5254 226.163 73.5254C226.033 73.5254 225.928 73.6303 225.928 73.7597C225.928 73.889 226.033 73.9939 226.163 73.9939Z" fill="#ED3C95"/>
<path d="M226.962 73.9939C227.092 73.9939 227.197 73.889 227.197 73.7597C227.197 73.6303 227.092 73.5254 226.962 73.5254C226.832 73.5254 226.727 73.6303 226.727 73.7597C226.727 73.889 226.832 73.9939 226.962 73.9939Z" fill="#ED3C95"/>
<path d="M227.763 73.9939C227.893 73.9939 227.998 73.889 227.998 73.7597C227.998 73.6303 227.893 73.5254 227.763 73.5254C227.633 73.5254 227.527 73.6303 227.527 73.7597C227.527 73.889 227.633 73.9939 227.763 73.9939Z" fill="#ED3C95"/>
<path d="M228.567 73.9939C228.697 73.9939 228.803 73.889 228.803 73.7597C228.803 73.6303 228.697 73.5254 228.567 73.5254C228.437 73.5254 228.332 73.6303 228.332 73.7597C228.332 73.889 228.437 73.9939 228.567 73.9939Z" fill="#ED3C95"/>
<path d="M229.364 73.9939C229.494 73.9939 229.6 73.889 229.6 73.7597C229.6 73.6303 229.494 73.5254 229.364 73.5254C229.234 73.5254 229.129 73.6303 229.129 73.7597C229.129 73.889 229.234 73.9939 229.364 73.9939Z" fill="#ED3C95"/>
<path d="M230.169 73.9939C230.299 73.9939 230.404 73.889 230.404 73.7597C230.404 73.6303 230.299 73.5254 230.169 73.5254C230.039 73.5254 229.934 73.6303 229.934 73.7597C229.934 73.889 230.039 73.9939 230.169 73.9939Z" fill="#ED3C95"/>
<path d="M230.968 73.9939C231.098 73.9939 231.203 73.889 231.203 73.7597C231.203 73.6303 231.098 73.5254 230.968 73.5254C230.838 73.5254 230.732 73.6303 230.732 73.7597C230.732 73.889 230.838 73.9939 230.968 73.9939Z" fill="#ED3C95"/>
<path d="M231.769 73.9939C231.899 73.9939 232.004 73.889 232.004 73.7597C232.004 73.6303 231.899 73.5254 231.769 73.5254C231.639 73.5254 231.533 73.6303 231.533 73.7597C231.533 73.889 231.639 73.9939 231.769 73.9939Z" fill="#ED3C95"/>
<path d="M232.569 73.9939C232.699 73.9939 232.805 73.889 232.805 73.7597C232.805 73.6303 232.699 73.5254 232.569 73.5254C232.439 73.5254 232.334 73.6303 232.334 73.7597C232.334 73.889 232.439 73.9939 232.569 73.9939Z" fill="#ED3C95"/>
<path d="M233.37 73.9939C233.5 73.9939 233.606 73.889 233.606 73.7597C233.606 73.6303 233.5 73.5254 233.37 73.5254C233.24 73.5254 233.135 73.6303 233.135 73.7597C233.135 73.889 233.24 73.9939 233.37 73.9939Z" fill="#ED3C95"/>
<path d="M234.171 73.9939C234.301 73.9939 234.406 73.889 234.406 73.7597C234.406 73.6303 234.301 73.5254 234.171 73.5254C234.041 73.5254 233.936 73.6303 233.936 73.7597C233.936 73.889 234.041 73.9939 234.171 73.9939Z" fill="#ED3C95"/>
<path d="M223.761 74.7449C223.891 74.7449 223.996 74.64 223.996 74.5106C223.996 74.3813 223.891 74.2764 223.761 74.2764C223.631 74.2764 223.525 74.3813 223.525 74.5106C223.525 74.64 223.631 74.7449 223.761 74.7449Z" fill="#ED3C95"/>
<path d="M224.562 74.7449C224.692 74.7449 224.797 74.64 224.797 74.5106C224.797 74.3813 224.692 74.2764 224.562 74.2764C224.432 74.2764 224.326 74.3813 224.326 74.5106C224.326 74.64 224.432 74.7449 224.562 74.7449Z" fill="#ED3C95"/>
<path d="M225.362 74.7449C225.492 74.7449 225.598 74.64 225.598 74.5106C225.598 74.3813 225.492 74.2764 225.362 74.2764C225.232 74.2764 225.127 74.3813 225.127 74.5106C225.127 74.64 225.232 74.7449 225.362 74.7449Z" fill="#ED3C95"/>
<path d="M226.163 74.7449C226.293 74.7449 226.399 74.64 226.399 74.5106C226.399 74.3813 226.293 74.2764 226.163 74.2764C226.033 74.2764 225.928 74.3813 225.928 74.5106C225.928 74.64 226.033 74.7449 226.163 74.7449Z" fill="#ED3C95"/>
<path d="M226.962 74.7449C227.092 74.7449 227.197 74.64 227.197 74.5106C227.197 74.3813 227.092 74.2764 226.962 74.2764C226.832 74.2764 226.727 74.3813 226.727 74.5106C226.727 74.64 226.832 74.7449 226.962 74.7449Z" fill="#ED3C95"/>
<path d="M227.763 74.7449C227.893 74.7449 227.998 74.64 227.998 74.5106C227.998 74.3813 227.893 74.2764 227.763 74.2764C227.633 74.2764 227.527 74.3813 227.527 74.5106C227.527 74.64 227.633 74.7449 227.763 74.7449Z" fill="#ED3C95"/>
<path d="M228.567 74.7449C228.697 74.7449 228.803 74.64 228.803 74.5106C228.803 74.3813 228.697 74.2764 228.567 74.2764C228.437 74.2764 228.332 74.3813 228.332 74.5106C228.332 74.64 228.437 74.7449 228.567 74.7449Z" fill="#ED3C95"/>
<path d="M229.364 74.7449C229.494 74.7449 229.6 74.64 229.6 74.5106C229.6 74.3813 229.494 74.2764 229.364 74.2764C229.234 74.2764 229.129 74.3813 229.129 74.5106C229.129 74.64 229.234 74.7449 229.364 74.7449Z" fill="#ED3C95"/>
<path d="M230.169 74.7449C230.299 74.7449 230.404 74.64 230.404 74.5106C230.404 74.3813 230.299 74.2764 230.169 74.2764C230.039 74.2764 229.934 74.3813 229.934 74.5106C229.934 74.64 230.039 74.7449 230.169 74.7449Z" fill="#ED3C95"/>
<path d="M230.968 74.7449C231.098 74.7449 231.203 74.64 231.203 74.5106C231.203 74.3813 231.098 74.2764 230.968 74.2764C230.838 74.2764 230.732 74.3813 230.732 74.5106C230.732 74.64 230.838 74.7449 230.968 74.7449Z" fill="#ED3C95"/>
<path d="M231.769 74.7449C231.899 74.7449 232.004 74.64 232.004 74.5106C232.004 74.3813 231.899 74.2764 231.769 74.2764C231.639 74.2764 231.533 74.3813 231.533 74.5106C231.533 74.64 231.639 74.7449 231.769 74.7449Z" fill="#ED3C95"/>
<path d="M232.569 74.7449C232.699 74.7449 232.805 74.64 232.805 74.5106C232.805 74.3813 232.699 74.2764 232.569 74.2764C232.439 74.2764 232.334 74.3813 232.334 74.5106C232.334 74.64 232.439 74.7449 232.569 74.7449Z" fill="#ED3C95"/>
<path d="M233.37 74.7449C233.5 74.7449 233.606 74.64 233.606 74.5106C233.606 74.3813 233.5 74.2764 233.37 74.2764C233.24 74.2764 233.135 74.3813 233.135 74.5106C233.135 74.64 233.24 74.7449 233.37 74.7449Z" fill="#ED3C95"/>
<path d="M234.171 74.7449C234.301 74.7449 234.406 74.64 234.406 74.5106C234.406 74.3813 234.301 74.2764 234.171 74.2764C234.041 74.2764 233.936 74.3813 233.936 74.5106C233.936 74.64 234.041 74.7449 234.171 74.7449Z" fill="#ED3C95"/>
<path d="M223.761 75.4949C223.891 75.4949 223.996 75.39 223.996 75.2606C223.996 75.1313 223.891 75.0264 223.761 75.0264C223.631 75.0264 223.525 75.1313 223.525 75.2606C223.525 75.39 223.631 75.4949 223.761 75.4949Z" fill="#ED3C95"/>
<path d="M224.562 75.4949C224.692 75.4949 224.797 75.39 224.797 75.2606C224.797 75.1313 224.692 75.0264 224.562 75.0264C224.432 75.0264 224.326 75.1313 224.326 75.2606C224.326 75.39 224.432 75.4949 224.562 75.4949Z" fill="#ED3C95"/>
<path d="M225.362 75.4949C225.492 75.4949 225.598 75.39 225.598 75.2606C225.598 75.1313 225.492 75.0264 225.362 75.0264C225.232 75.0264 225.127 75.1313 225.127 75.2606C225.127 75.39 225.232 75.4949 225.362 75.4949Z" fill="#ED3C95"/>
<path d="M226.163 75.4949C226.293 75.4949 226.399 75.39 226.399 75.2606C226.399 75.1313 226.293 75.0264 226.163 75.0264C226.033 75.0264 225.928 75.1313 225.928 75.2606C225.928 75.39 226.033 75.4949 226.163 75.4949Z" fill="#ED3C95"/>
<path d="M226.962 75.4949C227.092 75.4949 227.197 75.39 227.197 75.2606C227.197 75.1313 227.092 75.0264 226.962 75.0264C226.832 75.0264 226.727 75.1313 226.727 75.2606C226.727 75.39 226.832 75.4949 226.962 75.4949Z" fill="#ED3C95"/>
<path d="M227.763 75.4949C227.893 75.4949 227.998 75.39 227.998 75.2606C227.998 75.1313 227.893 75.0264 227.763 75.0264C227.633 75.0264 227.527 75.1313 227.527 75.2606C227.527 75.39 227.633 75.4949 227.763 75.4949Z" fill="#ED3C95"/>
<path d="M228.567 75.4949C228.697 75.4949 228.803 75.39 228.803 75.2606C228.803 75.1313 228.697 75.0264 228.567 75.0264C228.437 75.0264 228.332 75.1313 228.332 75.2606C228.332 75.39 228.437 75.4949 228.567 75.4949Z" fill="#ED3C95"/>
<path d="M229.364 75.4949C229.494 75.4949 229.6 75.39 229.6 75.2606C229.6 75.1313 229.494 75.0264 229.364 75.0264C229.234 75.0264 229.129 75.1313 229.129 75.2606C229.129 75.39 229.234 75.4949 229.364 75.4949Z" fill="#ED3C95"/>
<path d="M230.169 75.4949C230.299 75.4949 230.404 75.39 230.404 75.2606C230.404 75.1313 230.299 75.0264 230.169 75.0264C230.039 75.0264 229.934 75.1313 229.934 75.2606C229.934 75.39 230.039 75.4949 230.169 75.4949Z" fill="#ED3C95"/>
<path d="M230.968 75.4949C231.098 75.4949 231.203 75.39 231.203 75.2606C231.203 75.1313 231.098 75.0264 230.968 75.0264C230.838 75.0264 230.732 75.1313 230.732 75.2606C230.732 75.39 230.838 75.4949 230.968 75.4949Z" fill="#ED3C95"/>
<path d="M231.769 75.4949C231.899 75.4949 232.004 75.39 232.004 75.2606C232.004 75.1313 231.899 75.0264 231.769 75.0264C231.639 75.0264 231.533 75.1313 231.533 75.2606C231.533 75.39 231.639 75.4949 231.769 75.4949Z" fill="#ED3C95"/>
<path d="M232.569 75.4949C232.699 75.4949 232.805 75.39 232.805 75.2606C232.805 75.1313 232.699 75.0264 232.569 75.0264C232.439 75.0264 232.334 75.1313 232.334 75.2606C232.334 75.39 232.439 75.4949 232.569 75.4949Z" fill="#ED3C95"/>
<path d="M233.37 75.4949C233.5 75.4949 233.606 75.39 233.606 75.2606C233.606 75.1313 233.5 75.0264 233.37 75.0264C233.24 75.0264 233.135 75.1313 233.135 75.2606C233.135 75.39 233.24 75.4949 233.37 75.4949Z" fill="#ED3C95"/>
<path d="M234.171 75.4949C234.301 75.4949 234.406 75.39 234.406 75.2606C234.406 75.1313 234.301 75.0264 234.171 75.0264C234.041 75.0264 233.936 75.1313 233.936 75.2606C233.936 75.39 234.041 75.4949 234.171 75.4949Z" fill="#ED3C95"/>
<path d="M223.761 76.2439C223.891 76.2439 223.996 76.139 223.996 76.0097C223.996 75.8803 223.891 75.7754 223.761 75.7754C223.631 75.7754 223.525 75.8803 223.525 76.0097C223.525 76.139 223.631 76.2439 223.761 76.2439Z" fill="#ED3C95"/>
<path d="M224.562 76.2439C224.692 76.2439 224.797 76.139 224.797 76.0097C224.797 75.8803 224.692 75.7754 224.562 75.7754C224.432 75.7754 224.326 75.8803 224.326 76.0097C224.326 76.139 224.432 76.2439 224.562 76.2439Z" fill="#ED3C95"/>
<path d="M225.362 76.2439C225.492 76.2439 225.598 76.139 225.598 76.0097C225.598 75.8803 225.492 75.7754 225.362 75.7754C225.232 75.7754 225.127 75.8803 225.127 76.0097C225.127 76.139 225.232 76.2439 225.362 76.2439Z" fill="#ED3C95"/>
<path d="M226.163 76.2439C226.293 76.2439 226.399 76.139 226.399 76.0097C226.399 75.8803 226.293 75.7754 226.163 75.7754C226.033 75.7754 225.928 75.8803 225.928 76.0097C225.928 76.139 226.033 76.2439 226.163 76.2439Z" fill="#ED3C95"/>
<path d="M226.962 76.2439C227.092 76.2439 227.197 76.139 227.197 76.0097C227.197 75.8803 227.092 75.7754 226.962 75.7754C226.832 75.7754 226.727 75.8803 226.727 76.0097C226.727 76.139 226.832 76.2439 226.962 76.2439Z" fill="#ED3C95"/>
<path d="M227.763 76.2439C227.893 76.2439 227.998 76.139 227.998 76.0097C227.998 75.8803 227.893 75.7754 227.763 75.7754C227.633 75.7754 227.527 75.8803 227.527 76.0097C227.527 76.139 227.633 76.2439 227.763 76.2439Z" fill="#ED3C95"/>
<path d="M228.567 76.2439C228.697 76.2439 228.803 76.139 228.803 76.0097C228.803 75.8803 228.697 75.7754 228.567 75.7754C228.437 75.7754 228.332 75.8803 228.332 76.0097C228.332 76.139 228.437 76.2439 228.567 76.2439Z" fill="#ED3C95"/>
<path d="M229.364 76.2439C229.494 76.2439 229.6 76.139 229.6 76.0097C229.6 75.8803 229.494 75.7754 229.364 75.7754C229.234 75.7754 229.129 75.8803 229.129 76.0097C229.129 76.139 229.234 76.2439 229.364 76.2439Z" fill="#ED3C95"/>
<path d="M230.169 76.2439C230.299 76.2439 230.404 76.139 230.404 76.0097C230.404 75.8803 230.299 75.7754 230.169 75.7754C230.039 75.7754 229.934 75.8803 229.934 76.0097C229.934 76.139 230.039 76.2439 230.169 76.2439Z" fill="#ED3C95"/>
<path d="M230.968 76.2439C231.098 76.2439 231.203 76.139 231.203 76.0097C231.203 75.8803 231.098 75.7754 230.968 75.7754C230.838 75.7754 230.732 75.8803 230.732 76.0097C230.732 76.139 230.838 76.2439 230.968 76.2439Z" fill="#ED3C95"/>
<path d="M231.769 76.2439C231.899 76.2439 232.004 76.139 232.004 76.0097C232.004 75.8803 231.899 75.7754 231.769 75.7754C231.639 75.7754 231.533 75.8803 231.533 76.0097C231.533 76.139 231.639 76.2439 231.769 76.2439Z" fill="#ED3C95"/>
<path d="M232.569 76.2439C232.699 76.2439 232.805 76.139 232.805 76.0097C232.805 75.8803 232.699 75.7754 232.569 75.7754C232.439 75.7754 232.334 75.8803 232.334 76.0097C232.334 76.139 232.439 76.2439 232.569 76.2439Z" fill="#ED3C95"/>
<path d="M233.37 76.2439C233.5 76.2439 233.606 76.139 233.606 76.0097C233.606 75.8803 233.5 75.7754 233.37 75.7754C233.24 75.7754 233.135 75.8803 233.135 76.0097C233.135 76.139 233.24 76.2439 233.37 76.2439Z" fill="#ED3C95"/>
<path d="M234.171 76.2439C234.301 76.2439 234.406 76.139 234.406 76.0097C234.406 75.8803 234.301 75.7754 234.171 75.7754C234.041 75.7754 233.936 75.8803 233.936 76.0097C233.936 76.139 234.041 76.2439 234.171 76.2439Z" fill="#ED3C95"/>
</g>
<path d="M236.299 66.4014L240.717 61.0951C240.823 60.9662 240.733 60.7749 240.568 60.7749H236.362C236.303 60.7749 236.248 60.8022 236.213 60.8452L233.894 63.6408C233.835 63.7111 233.835 63.8165 233.894 63.8907L236.001 66.4014C236.075 66.4951 236.22 66.4951 236.299 66.4014Z" fill="#263B74"/>
<path d="M236.307 70.6108L240.733 75.9288C240.839 76.0577 240.748 76.249 240.584 76.249H236.37C236.311 76.249 236.256 76.2216 236.22 76.1787L233.898 73.3791C233.839 73.3089 233.839 73.2034 233.898 73.1292L236.009 70.6147C236.083 70.5132 236.228 70.5132 236.307 70.6108Z" fill="#263B74"/>
<path d="M159.049 72.3573L160.611 68.1895H162.215L158.522 76.9774H156.917L158.209 74.005L155.818 68.1895H157.509L159.049 72.3573Z" fill="black"/>
<path d="M150.717 69.062C151.083 68.5128 151.783 68.0927 152.688 68.0927C154.217 68.0927 155.412 69.2882 155.412 71.1513C155.412 73.0144 154.217 74.2529 152.688 74.2529C151.751 74.2529 151.083 73.8222 150.717 73.3052V74.156H149.209V66.1865H150.717V69.062ZM153.872 71.1513C153.872 70.0205 153.108 69.4174 152.289 69.4174C151.481 69.4174 150.717 70.042 150.717 71.1728C150.717 72.3036 151.481 72.9283 152.289 72.9283C153.108 72.9283 153.872 72.2821 153.872 71.1513Z" fill="black"/>
</svg>
