<svg width="261" height="50" viewBox="0 0 261 50" fill="none" xmlns="http://www.w3.org/2000/svg">
<path d="M74.2193 12.7471H69.6273L60.9609 36.9981H65.1036L66.8427 32.0481H76.9648L78.7039 36.9981H82.8759L74.2096 12.7471H74.2193ZM67.9565 28.8101L71.9233 17.5601L75.851 28.8101H67.9565Z" fill="#0A0A33"/>
<path d="M86.4219 36.9884H90.1542V29.221L96.8371 36.9884H101.879L93.564 27.9786L101.879 18.9297H96.7101L90.1542 26.8243V12.7275H86.4219V36.9884Z" fill="#0A0A33"/>
<path d="M108.289 27.4792C108.289 23.6444 109.989 22.4999 112.744 22.4999H113.692V18.6357C111.142 18.6357 109.334 19.751 108.289 21.551V18.9292H104.557V36.9977H108.289V27.489V27.4792Z" fill="#0A0A33"/>
<path d="M120.853 18.9297H117.121V36.9981H120.853V18.9297Z" fill="#0A0A33"/>
<path d="M119.027 16.5327C120.336 16.5327 121.381 15.486 121.381 14.136C121.381 12.786 120.336 11.7393 119.027 11.7393C117.717 11.7393 116.633 12.786 116.633 14.136C116.633 15.486 117.678 16.5327 119.027 16.5327Z" fill="#0A0A33"/>
<path d="M123.629 18.9297L130.478 36.9883H134.923L141.802 18.9297H137.845L132.735 33.6427L127.625 18.9297H123.629Z" fill="#0A0A33"/>
<path d="M148.357 18.9297H144.625V36.9981H148.357V18.9297Z" fill="#0A0A33"/>
<path d="M146.521 16.5327C147.83 16.5327 148.875 15.486 148.875 14.136C148.875 12.786 147.83 11.7393 146.521 11.7393C145.211 11.7393 144.127 12.786 144.127 14.136C144.127 15.486 145.172 16.5327 146.521 16.5327Z" fill="#0A0A33"/>
<path d="M166.785 18.9292V21.551C165.671 20.0738 163.58 18.6357 160.531 18.6357C155.783 18.6357 152.021 22.3042 152.021 27.8803C152.021 33.4564 155.783 37.2911 160.473 37.2911C163.482 37.2911 165.641 35.8531 166.794 34.3074V36.9977H170.556V18.9292H166.794H166.785ZM161.313 34.0433C158.529 34.0433 155.842 31.7835 155.842 27.8803C155.842 23.977 158.529 21.8836 161.313 21.8836C164.098 21.8836 166.785 24.0846 166.785 27.9488C166.785 31.8129 164.137 34.0433 161.313 34.0433Z" fill="#0A0A33"/>
<path d="M196.951 36.9814H202.832V12.7988H196.951V22.2684H187.806V12.7988H181.914V36.9814H187.806V27.0227H196.951V36.9814Z" fill="#6960EC"/>
<path d="M205.979 24.9142C205.979 32.019 211.023 36.9914 218.178 36.9914C223.949 36.9914 228.307 33.8468 229.69 28.6976H223.193C222.192 30.7317 220.357 31.7439 218.109 31.7439C214.478 31.7439 211.995 29.1005 211.995 24.9142C211.995 20.728 214.488 18.0846 218.109 18.0846C220.357 18.0846 222.192 19.0968 223.193 21.1309H229.69C228.307 15.9915 223.949 12.8076 218.178 12.8076C211.023 12.8076 205.979 17.8193 205.979 24.9241V24.9142Z" fill="#6960EC"/>
<path d="M233.002 36.9568H238.903V22.4376L244.353 36.9568H249.117L254.538 22.4669V36.9568H260.449V12.8037H253.509L246.774 29.5213L239.971 12.8037H233.002V36.9568Z" fill="#6960EC"/>
<path d="M13.9034 12.9785C8.8576 16.9579 8.34599 23.3869 8.71716 26.1064C5.02557 20.3274 4.72463 13.4085 5.0356 10.6789C8.97797 3.99996 17.5449 0.930455 21.3267 0.220568C36.3138 -1.51915 44.4694 7.45941 46.6763 12.1687C36.9357 7.88934 29.3419 8.59923 26.7638 9.48909C24.0152 5.15978 19.6214 5.60971 17.7756 6.37959C13.6326 8.1693 13.4721 11.5188 13.9034 12.9785Z" fill="#00CFF4"/>
<path d="M20.5947 40.8948C26.5935 43.2044 32.4118 40.3848 34.5785 38.6851C31.4588 44.7941 25.6305 48.5635 23.1126 49.6833C15.3482 49.6833 8.33619 43.8943 5.80826 40.9947C-3.31036 29.0067 0.311006 17.4385 3.26026 13.1592C4.50417 23.6975 8.97821 29.8565 11.0547 31.6162C8.70736 36.1755 11.3256 39.7149 12.9306 40.9147C16.5821 43.5643 19.5614 42.0046 20.5947 40.8948Z" fill="#00CC6F"/>
<path d="M41.1494 21.1273C40.1563 14.7883 34.7894 11.1789 32.2314 10.169C39.0929 9.80909 45.2824 12.9586 47.5194 14.5683C51.4016 21.2773 49.8768 30.2158 48.6228 33.8553C42.7645 47.713 30.9072 50.3626 25.7109 49.9627C34.2477 43.6237 37.3575 36.6848 37.8591 34.0052C42.9952 33.7553 44.7607 29.7259 45.0015 27.7362C45.473 23.2569 42.634 21.4672 41.1494 21.1273Z" fill="#FB275D"/>
<path d="M20.2747 17.6376C23.272 17.6376 25.7017 15.2159 25.7017 12.2285C25.7017 9.24109 23.272 6.81934 20.2747 6.81934C17.2774 6.81934 14.8477 9.24109 14.8477 12.2285C14.8477 15.2159 17.2774 17.6376 20.2747 17.6376Z" fill="#00CFF4"/>
<path d="M38.6223 32.4442C41.6196 32.4442 44.0494 30.0225 44.0494 27.0351C44.0494 24.0477 41.6196 21.626 38.6223 21.626C35.6251 21.626 33.1953 24.0477 33.1953 27.0351C33.1953 30.0225 35.6251 32.4442 38.6223 32.4442Z" fill="#FB275D"/>
<path d="M16.7747 41.163C19.772 41.163 22.2017 38.7412 22.2017 35.7539C22.2017 32.7665 19.772 30.3447 16.7747 30.3447C13.7774 30.3447 11.3477 32.7665 11.3477 35.7539C11.3477 38.7412 13.7774 41.163 16.7747 41.163Z" fill="#00CC6F"/>
<path d="M20.3027 13.3475C20.9146 13.3475 20.9146 12.3975 20.3027 12.3975C19.6908 12.3975 19.6908 13.3475 20.3027 13.3475Z" fill="#29BBFE"/>
</svg>
