<?xml version="1.0" encoding="UTF-8"?>
<svg xmlns="http://www.w3.org/2000/svg" width="146" height="32" viewBox="0 0 146 32" fill="none">
  <g clip-path="url(#clip0_1_10307)">
    <path d="M12.7798 14.4477L16.0385 16.0545L13.345 26.2366L12.0681 32C5.3764 30.0085 0 24.0613 0 16.7013C0 15.2374 0.195378 13.8213 0.57218 12.4698C0.715225 12.5243 0.854781 12.5889 0.987359 12.6604L4.26344 14.4374C5.04495 14.863 5.96253 15.0026 6.83476 14.8323L10.3271 14.1345C11.1575 13.9677 12.0228 14.0834 12.7764 14.4511L12.7798 14.4477Z" fill="white"></path>
    <path d="M11.2901 10.526L16.7921 13.2392V13.246L13.0589 11.5983C12.1518 11.2034 11.1156 11.166 10.1876 11.5098L6.96034 12.6945C6.02881 13.0417 4.99609 13.0043 4.08898 12.606L0.973389 11.2272C1.14434 10.7609 1.33623 10.3013 1.55255 9.85873L2.77715 10.5226C3.55866 10.9447 4.47276 11.0809 5.34847 10.9038L8.84435 10.206C9.67122 10.0426 10.533 10.1549 11.2866 10.5294L11.2901 10.526Z" fill="white"></path>
    <path d="M2.26428 8.53106C2.36197 8.36766 2.46664 8.20085 2.57828 8.03745C2.47711 8.20085 2.37942 8.37106 2.28522 8.53787L2.26428 8.52766V8.53106Z" fill="white"></path>
    <path d="M33.8912 16.4289V16.5345C33.8877 17.4911 33.7935 18.4272 33.6296 19.3362C33.6121 19.4315 33.5912 19.52 33.5772 19.6119C33.5633 19.6868 33.5458 19.7617 33.5284 19.8366C33.504 19.9455 33.4795 20.0511 33.4551 20.1566C32.9039 22.383 31.8642 24.446 30.4512 26.2332H20.5322L19.7507 19.36H28.93L29.9523 15.6732L16.7921 9.94723L11.5692 7.6766C10.6656 7.2783 9.6329 7.24426 8.70486 7.58809L5.47762 8.77617C4.54609 9.12 3.51686 9.08936 2.60975 8.68766L2.28528 8.54468C2.38297 8.37447 2.47717 8.21106 2.57835 8.04425C5.516 3.22383 10.8994 0 17.0573 0C18.5436 0 19.981 0.187234 21.3521 0.541277C21.3556 0.541277 21.3626 0.541277 21.3661 0.541277C28.3055 2.33191 33.49 8.33021 33.8668 15.5745C33.8808 15.857 33.8912 16.1396 33.8912 16.4255V16.4289Z" fill="white"></path>
    <path d="M43.217 26.2128V5.78723H48.9005V13.7668H56.4225V5.78723H62.1059V26.2128H56.4225V18.2332H48.9005V26.2128H43.217Z" fill="white"></path>
    <path d="M64.2272 26.2128V5.78723H73.2634C74.816 5.78723 76.1767 6.06298 77.342 6.61447C78.5072 7.16596 79.4144 7.96255 80.0598 8.99744C80.7087 10.0357 81.0297 11.2783 81.0297 12.7285C81.0297 14.1787 80.6948 15.4247 80.0284 16.4289C79.369 17.4332 78.4375 18.1923 77.2373 18.703C76.0441 19.2136 74.652 19.4723 73.0576 19.4723H67.6603V15.1626H71.9132C72.5796 15.1626 73.1483 15.0843 73.6193 14.9243C74.0973 14.7574 74.4601 14.4953 74.7113 14.1379C74.9695 13.7804 75.0986 13.3106 75.0986 12.7319C75.0986 12.1532 74.9695 11.6698 74.7113 11.3055C74.4601 10.9345 74.0938 10.6621 73.6193 10.4885C73.1483 10.3081 72.5796 10.2196 71.9132 10.2196H69.9106V26.2162H64.2272V26.2128ZM76.4942 16.8374L81.7275 26.2128H75.5521L70.4409 16.8374H76.4907H76.4942Z" fill="white"></path>
    <path d="M87.7214 24.8545C86.127 23.9489 84.8849 22.7064 83.9569 21.1234C83.0288 19.5711 82.5962 17.8451 82.5962 15.9796C82.5962 14.114 83.0602 12.3915 83.9848 10.8085C84.9128 9.25276 86.1584 8.01021 87.7772 7.10808C89.3716 6.20255 91.137 5.75319 93.0768 5.75319C95.0167 5.75319 96.7542 6.20595 98.3765 7.10808C99.9709 8.01362 101.244 9.25617 102.169 10.8085C103.097 12.3915 103.558 14.114 103.558 15.9796C103.558 17.8451 103.093 19.5949 102.169 21.1506C101.241 22.7336 99.9988 23.9489 98.4044 24.8511C96.7821 25.7566 95.0167 26.206 93.0768 26.206C91.137 26.206 89.3123 25.7532 87.7179 24.8511L87.7214 24.8545ZM97.4205 23.1864C98.694 22.4511 99.7092 21.4332 100.431 20.1634C101.154 18.9209 101.53 17.5081 101.53 15.983C101.53 14.4579 101.154 13.0723 100.431 11.8026C99.6778 10.56 98.6661 9.54213 97.3926 8.80681C96.0878 8.07149 94.6399 7.67659 93.0768 7.67659C91.5138 7.67659 90.038 8.04425 88.7611 8.77957C87.4876 9.51489 86.4724 10.5328 85.7222 11.8026C84.9686 13.0757 84.6232 14.4579 84.6232 15.983C84.6232 17.5081 84.9721 18.9515 85.7222 20.194C86.4444 21.4638 87.4597 22.4545 88.7332 23.1898C90.0066 23.9251 91.4545 24.2928 93.0768 24.2928C94.6992 24.2928 96.1471 23.9251 97.4205 23.1898V23.1864Z" fill="white"></path>
    <path d="M105.609 26.2128V5.78724H108.076V9.07575C109.6 6.88 111.921 5.74638 115.078 5.74638C116.819 5.74638 118.344 6.10043 119.648 6.73702C120.81 7.37362 121.679 8.22468 122.335 9.3583C122.952 10.4919 123.277 11.8026 123.277 13.3243V26.2128H120.81V13.3243C120.81 11.697 120.266 10.4204 119.177 9.50128C118.089 8.58213 116.672 8.08511 114.858 8.08511C112.681 8.08511 111.013 8.68766 109.852 9.88936C108.655 11.0945 108.072 12.7932 108.072 14.9889V26.2128H105.606H105.609Z" fill="white"></path>
    <path d="M130.576 24.9362C129.009 24.034 127.798 22.7847 126.909 21.2221C126.019 19.6596 125.594 17.9234 125.594 16.0477C125.594 14.1719 126.019 12.4698 126.909 10.9072C127.798 9.34469 129.009 8.09532 130.576 7.1932C132.107 6.29107 133.813 5.80426 135.666 5.80426C137.519 5.80426 139.19 6.29107 140.718 7.1932C142.25 8.09532 143.457 9.34469 144.346 10.9072C145.236 12.4698 145.7 14.1719 145.7 16.0477C145.7 16.5345 145.665 16.8477 145.665 17.0553H128.085C128.228 18.3762 128.653 19.554 129.365 20.5958C130.077 21.6715 130.966 22.5055 132.069 23.0945C133.137 23.7209 134.347 23.9966 135.662 23.9966C136.978 23.9966 138.119 23.7175 139.186 23.1285C140.254 22.5736 141.144 21.7736 141.855 20.766H144.632C143.778 22.4681 142.532 23.823 140.966 24.7932C139.364 25.8009 137.585 26.2877 135.662 26.2877C133.74 26.2877 132.104 25.8349 130.572 24.9328L130.576 24.9362ZM143.244 14.8323C143.031 13.583 142.602 12.4358 141.89 11.394C141.178 10.3523 140.254 9.55235 139.186 8.96341C138.119 8.40852 136.943 8.09532 135.662 8.09532C134.382 8.09532 133.171 8.40852 132.104 8.96341C131.036 9.55235 130.147 10.3523 129.435 11.394C128.723 12.4358 128.259 13.583 128.081 14.8323H143.24H143.244Z" fill="white"></path>
    <path d="M104.667 5.78723H106.063V8.17021H104.667V5.78723Z" fill="white"></path>
  </g>
  <defs>
    <clipPath id="clip0_1_10307">
      <rect width="145.7" height="32" fill="white"></rect>
    </clipPath>
  </defs>
</svg>
